<?xml version="1.0" standalone="no"?>
<!DOCTYPE svg PUBLIC "-//W3C//DTD SVG 1.1//EN" "http://www.w3.org/Graphics/SVG/1.1/DTD/svg11.dtd" >
<svg xmlns="http://www.w3.org/2000/svg">
<metadata></metadata>
<defs>
<font id="freighttext_promedium_italic" horiz-adv-x="968" >
<font-face units-per-em="2048" ascent="1638" descent="-410" />
<missing-glyph horiz-adv-x="466" />
<glyph unicode="&#xfb01;" horiz-adv-x="987" d="M-334 -375q0 50 28.5 81.5t74.5 31.5q53 0 84.5 -40.5t37.5 -103.5l113 48q35 79 92 387l142 782l-187 8l6 60l195 47q47 253 164 370q58 58 144 93.5t185 35.5q93 0 150 -45.5t57 -107.5q0 -50 -29.5 -84.5t-74.5 -34.5q-53 0 -89 41.5t-50 110.5l-217 -29 q-61 -142 -89 -358h248q53 32 86 32t92.5 -41.5t53.5 -64.5l-201 -735l59 -21l162 123l35 -37q-40 -75 -120.5 -140t-141.5 -65q-32 0 -87 43.5t-50 63.5l192 737l-16 6h-330l-111 -586q-94 -510 -215 -639q-44 -48 -106.5 -73t-126.5 -25q-68 0 -114 36t-46 93z" />
<glyph unicode="&#xfb02;" horiz-adv-x="1021" d="M-334 -375q0 50 28.5 81.5t74.5 31.5q53 0 84.5 -40.5t37.5 -103.5l119 48q21 41 49.5 158t46.5 229l123 782l-178 8l6 60l195 47q47 253 164 370q58 58 144 93.5t185 35.5q72 0 127 -30l117 32l-274 -1318l59 -21l162 123l35 -37q-40 -75 -120.5 -140t-141.5 -65 q-31 0 -87 44t-53 63l146 743h-330l-111 -586q-94 -510 -215 -639q-44 -48 -106.5 -73t-126.5 -25q-68 0 -114 36t-46 93zM403 918h330l51 253q-56 38 -75 134l-217 -29q-61 -142 -89 -358z" />
<glyph unicode="&#xfb03;" horiz-adv-x="1499" d="M-334 -375q0 50 28.5 81.5t74.5 31.5q53 0 84.5 -40.5t37.5 -103.5l113 48q35 79 92 387l142 782l-187 8l6 60l195 47q20 105 61.5 205t102.5 161q57 57 120.5 86t155.5 29q88 0 142.5 -44t54.5 -103v-7l39 43q58 58 144 93.5t185 35.5q93 0 150 -45.5t57 -107.5 q0 -50 -29.5 -84.5t-74.5 -34.5q-53 0 -89 41.5t-50 110.5l-217 -29q-61 -142 -89 -358h248q53 32 86 32t92.5 -41.5t53.5 -64.5l-201 -735l59 -21l162 123l35 -37q-40 -75 -120.5 -140t-141.5 -65q-32 0 -87 43.5t-50 63.5l192 737l-16 6h-330l-102 -524 q-99 -515 -215 -639q-100 -100 -207 -100q-68 0 -114 36t-46 93q0 50 28 81t74 31q53 0 85 -40.5t38 -102.5l92 49q20 41 48.5 158t48.5 229l116 729h-358l-111 -586q-94 -510 -215 -639q-44 -48 -106.5 -73t-126.5 -25q-68 0 -114 36t-46 93zM403 918h361q24 148 65 237 q-24 -8 -41 -8q-51 0 -84.5 39.5t-46.5 105.5l-165 -28q-64 -148 -89 -346z" />
<glyph unicode="&#xfb04;" horiz-adv-x="1533" d="M-334 -375q0 50 28.5 81.5t74.5 31.5q53 0 84.5 -40.5t37.5 -103.5l113 48q35 79 92 387l142 782l-187 8l6 60l195 47q20 105 61.5 205t102.5 161q57 57 120.5 86t155.5 29q88 0 142.5 -44t54.5 -103v-7l39 43q58 58 144 93.5t185 35.5q72 0 127 -30l117 32l-274 -1318 l59 -21l162 123l35 -37q-40 -75 -120.5 -140t-141.5 -65q-31 0 -87 44t-53 63l146 743h-330l-102 -524q-99 -515 -215 -639q-100 -100 -207 -100q-68 0 -114 36t-46 93q0 50 28 81t74 31q53 0 85 -40.5t38 -102.5l92 49q20 41 48.5 158t48.5 229l116 729h-358l-111 -586 q-94 -510 -215 -639q-44 -48 -106.5 -73t-126.5 -25q-68 0 -114 36t-46 93zM403 918h361q24 148 65 237q-24 -8 -41 -8q-51 0 -84.5 39.5t-46.5 105.5l-165 -28q-64 -148 -89 -346zM915 918h330l51 253q-53 37 -75 134l-217 -29q-61 -142 -89 -358z" />
<glyph horiz-adv-x="2048" />
<glyph horiz-adv-x="2048" />
<glyph unicode="&#xd;" horiz-adv-x="2048" />
<glyph unicode=" "  horiz-adv-x="466" />
<glyph unicode="&#x09;" horiz-adv-x="466" />
<glyph unicode="&#xa0;" horiz-adv-x="466" />
<glyph unicode="!" horiz-adv-x="581" d="M121 92q0 48 36 83.5t89 35.5t87 -35t34 -84q0 -51 -34 -87t-87 -36t-89 36.5t-36 86.5zM256 401l20 826q3 84 95 84h6q71 0 97 -25.5t15 -71.5l-192 -815q-3 -12 -22 -11t-19 13z" />
<glyph unicode="&#x22;" horiz-adv-x="757" d="M70 825l219 498h4l164 -57l-310 -441h-77zM403 825l220 498h2l163 -57l-309 -441h-76z" />
<glyph unicode="#" horiz-adv-x="1159" d="M0 369v77h283l102 381h-262v78h283l106 387h80l-105 -387h349l104 387h80l-105 -387h265v-78h-285l-102 -381h264v-77h-285l-102 -381h-80l102 381h-350l-102 -381h-80l102 381h-262zM362 446h351l102 381h-348z" />
<glyph unicode="$" horiz-adv-x="1044" d="M39 29l24 366h84l58 -280q52 -28 121 -43l139 518q-73 41 -121 76t-91.5 81t-64 102.5t-20.5 125.5q0 94 62 172t159.5 120t204.5 42q45 0 63 -2l56 204h80q-56 -208 -58 -208q60 -7 146 -27l106 24l-53 -393h-90l-27 254q-49 24 -108 39l-123 -455q63 -37 98 -60t84 -63 t75 -76t45 -87t19 -109q0 -110 -64.5 -197.5t-175 -135.5t-245.5 -48h-43l-84 -309h-80l84 313q-124 12 -260 56zM344 1047q-1 -81 41.5 -140.5t132.5 -118.5l115 424q-58 5 -72 5q-84 0 -150.5 -47.5t-66.5 -122.5zM403 61q18 -2 56 -2q126 0 196 60.5t72 161.5 q1 80 -47.5 140t-147.5 126z" />
<glyph unicode="%" horiz-adv-x="1527" d="M92 -31l1290 1340h121l-1290 -1340h-121zM113 946q0 156 109.5 267.5t262.5 111.5q138 0 231 -82.5t93 -218.5q0 -159 -109.5 -271t-267.5 -112q-135 0 -227 84.5t-92 220.5zM211 950q0 -99 66 -161t163 -62q113 0 190 81t77 196q0 101 -64.5 166t-165.5 65 q-112 0 -189 -86t-77 -199zM801 254q0 159 108 271t265 112q136 0 227.5 -82.5t91.5 -218.5q0 -158 -110 -270.5t-267 -112.5q-139 0 -227 82t-88 219zM899 262q0 -100 64 -161.5t161 -61.5q113 0 192 85t79 200q0 97 -66.5 160t-163.5 63q-112 0 -189 -86t-77 -199z" />
<glyph unicode="&#x26;" horiz-adv-x="1284" d="M6 281q0 85 32 156t86.5 118.5t119 78t135.5 44.5v2q-66 66 -101.5 133t-35.5 152q0 152 115 248t276 96q141 0 233 -73t92 -192q0 -129 -94 -210.5t-293 -133.5v-2l269 -292h2l243 208v4q-47 10 -73.5 41.5t-26.5 67.5q0 46 35.5 74t87.5 28q54 0 89.5 -35.5t35.5 -84.5 q0 -69 -53 -137.5t-174 -143.5l-119 -74l305 -331l-188 -56l-246 287h-2q-83 -96 -149.5 -154.5t-148 -95.5t-169.5 -37q-121 0 -202 93t-81 221zM178 326q0 -95 52 -154t124 -59q119 0 361 188l-299 338q-238 -129 -238 -313zM412 1018q0 -52 7.5 -92t26.5 -74t33 -53 t45 -56q139 66 201.5 129t62.5 150q0 92 -43 151.5t-129 59.5q-94 0 -149 -62t-55 -153z" />
<glyph unicode="'" horiz-adv-x="425" d="M70 825l221 498h2l164 -57l-310 -441h-77z" />
<glyph unicode="(" horiz-adv-x="808" d="M188 428q0 144 36 279.5t92.5 239t130 192t145.5 146t141 91.5l53 -71q-64 -35 -130 -91t-131.5 -139.5t-116 -179.5t-82 -218t-31.5 -249t31.5 -249t82 -218t116 -178.5t131.5 -138.5t130 -90l-53 -74q-69 34 -141 91.5t-145.5 146t-130 192t-92.5 239t-36 279.5z" />
<glyph unicode=")" horiz-adv-x="808" d="M23 -449q64 35 130 91t131.5 139.5t116 179.5t82 218t31.5 249t-31.5 249t-82 218t-116 179.5t-131.5 139.5t-130 91l55 71q69 -35 140 -92t144.5 -145.5t130 -192t92.5 -239t36 -279.5t-36 -279.5t-92.5 -239t-130 -192t-144.5 -145.5t-140 -92z" />
<glyph unicode="*" horiz-adv-x="714" d="M135 1161l27 37l131 -18l106 -166l33 10l-4 199l88 86l45 -15l23 -125l-127 -155l20 -27l189 68l108 -62v-45l-108 -61l-189 69l-20 -26l123 -156l-23 -125l-43 -12l-92 88l8 199l-31 8l-106 -160l-127 -20l-29 36l58 119l186 49v37l-186 54z" />
<glyph unicode="+" horiz-adv-x="983" d="M63 426l7 109h368v376h109v-376h366l7 -109h-373v-379h-109v379h-375z" />
<glyph unicode="," horiz-adv-x="475" d="M-61 -305q84 46 147.5 116.5t63.5 143.5q0 32 -14.5 61t-35 48.5t-41 34t-35 22t-14.5 8.5q0 46 43 78.5t99 32.5q71 0 126.5 -56t55.5 -137q0 -52 -22.5 -102.5t-56 -89t-83.5 -78.5t-91 -66t-93 -55z" />
<glyph unicode="-" horiz-adv-x="671" d="M68 426l6 109h528l6 -109h-540z" />
<glyph unicode="." horiz-adv-x="475" d="M55 106q0 55 40.5 94.5t99.5 39.5t97 -39.5t38 -94.5q0 -56 -38.5 -96.5t-96.5 -40.5q-59 0 -99.5 41t-40.5 96z" />
<glyph unicode="/" horiz-adv-x="571" d="M14 -434l441 1796h98l-440 -1796h-99z" />
<glyph unicode="0" horiz-adv-x="1030" d="M78 408q0 111 34 215.5t94 185.5t149.5 130.5t193.5 49.5q173 0 283 -117.5t110 -320.5q0 -111 -34 -215.5t-94 -186t-149.5 -131t-193.5 -49.5q-173 0 -283 118t-110 321zM211 408q0 -140 75 -229t191 -89q84 0 150.5 44.5t104.5 115.5t57.5 148.5t19.5 152.5 q0 140 -75 228.5t-191 88.5q-84 0 -150.5 -44.5t-104.5 -115t-57.5 -148t-19.5 -152.5z" />
<glyph unicode="1" horiz-adv-x="776" d="M53 0l6 72l154 22q49 5 53 47l94 703l-223 33l15 61l393 39l-113 -836q-4 -42 41 -47l158 -22l6 -72h-584z" />
<glyph unicode="2" horiz-adv-x="927" d="M20 0l7 127q46 33 118.5 82.5t112 77t95 68t85.5 66t65.5 60.5t53 62t29.5 58.5t12 62.5q0 89 -62.5 139.5t-154.5 50.5q-64 0 -136.5 -33.5t-127.5 -81.5l-15 49q73 82 185.5 138.5t216.5 56.5q119 0 203 -67.5t84 -182.5q0 -64 -32 -126t-65 -103.5t-125 -107.5 t-136.5 -93t-174.5 -104q-54 -32 -82 -49l-2 -11h33q119 0 190 2.5t126 8.5t85.5 19.5t50.5 31.5t39 49l50 80h88l-107 -330h-709z" />
<glyph unicode="3" horiz-adv-x="856" d="M-72 -268q0 43 31 74.5t74 31.5q60 0 104 -48t47 -109q34 -9 68 -9q127 0 214 94.5t87 221.5q0 113 -67.5 182.5t-180.5 69.5q-66 0 -143 -31l-21 51q165 96 237 153q167 132 167 255q0 88 -53.5 138t-141.5 50q-66 0 -132.5 -30.5t-147.5 -84.5l-15 52q98 89 200 140.5 t220 51.5q117 0 204 -66.5t87 -181.5q0 -65 -37 -128.5t-98 -114.5t-121 -89t-125 -69v-4q35 6 72 6q123 0 205.5 -79t82.5 -202q0 -126 -86.5 -237t-212.5 -172.5t-249 -61.5q-35 0 -77.5 7.5t-87 23.5t-74.5 46t-30 69z" />
<glyph unicode="4" horiz-adv-x="980" d="M-27 82v78l797 839h59l-106 -819h235l-28 -98h-221l-60 -459h-166l60 459h-570zM109 180h448l82 549h-10z" />
<glyph unicode="5" horiz-adv-x="890" d="M-70 -270q0 44 32 75t75 31q60 0 101 -46.5t44 -108.5q30 -9 66 -9q124 0 216.5 76t92.5 197q0 65 -32.5 126.5t-78 106t-113.5 88t-120 69.5t-117 54l221 569h535l-29 -170h-475l-100 -268q473 -187 473 -483q0 -134 -76 -239t-192.5 -158.5t-247.5 -53.5q-37 0 -79.5 7 t-88.5 21.5t-76.5 45t-30.5 70.5z" />
<glyph unicode="6" horiz-adv-x="1058" d="M88 453q0 115 41 226t112.5 203.5t169.5 173t210 139t236 96t247 48.5l18 -63q-318 -68 -536 -236t-326 -422h25q74 100 171.5 158t186.5 58q133 0 225.5 -96t92.5 -271q0 -133 -69.5 -249t-178 -181.5t-224.5 -65.5q-177 0 -289 137t-112 345zM260 389q0 -148 61.5 -247 t174.5 -99q121 0 206.5 118.5t85.5 284.5q0 126 -64.5 211.5t-148.5 85.5q-96 0 -169 -60t-123 -155q-23 -104 -23 -139z" />
<glyph unicode="7" horiz-adv-x="925" d="M18 -377l748 1170l2 10h-225q-197 0 -238 -7t-63 -44l-74 -123h-68l86 329h729l-2 -94l-782 -1241h-113z" />
<glyph unicode="8" horiz-adv-x="1019" d="M88 311q0 244 313 336v6q-187 113 -190 301q-1 160 114.5 256.5t280.5 96.5q139 0 240 -89t100 -233q-1 -122 -71 -193.5t-199 -115.5l2 -6q235 -138 235 -338q0 -119 -61 -202.5t-155.5 -121t-211.5 -37.5q-74 0 -145 23.5t-127.5 66t-90.5 108t-34 142.5zM256 303 q0 -119 70.5 -191.5t191.5 -72.5q107 0 169 55.5t63 163.5q1 48 -20 95t-47.5 80t-75 72t-78.5 58.5t-83 52.5q-190 -121 -190 -313zM375 1030q0 -168 252 -321q82 48 117.5 116.5t35.5 167.5q0 67 -20.5 122t-68.5 92.5t-116 37.5q-94 0 -147 -59t-53 -156z" />
<glyph unicode="9" horiz-adv-x="1058" d="M-63 -319q319 68 536.5 235.5t325.5 421.5h-25q-74 -100 -171.5 -157.5t-186.5 -57.5q-133 0 -225.5 95.5t-92.5 270.5q0 100 41 193t107 159t151.5 105t171.5 39q177 0 289.5 -137t112.5 -344q0 -171 -89.5 -330t-233.5 -274t-326 -190.5t-367 -92.5zM270 510 q0 -126 64.5 -211.5t148.5 -85.5q96 0 169.5 60t123.5 155q23 103 23 139q0 148 -61.5 247t-174.5 99q-121 0 -207 -118.5t-86 -284.5z" />
<glyph unicode=":" horiz-adv-x="475" d="M55 106q0 55 40.5 94.5t99.5 39.5t97 -39.5t38 -94.5q0 -56 -38.5 -96.5t-96.5 -40.5q-59 0 -99.5 41t-40.5 96zM139 733q0 55 40.5 94t99.5 39t97 -39t38 -94q0 -56 -38.5 -96.5t-96.5 -40.5q-59 0 -99.5 41t-40.5 96z" />
<glyph unicode=";" horiz-adv-x="475" d="M-61 -305q84 46 147.5 116.5t63.5 143.5q0 32 -14.5 61t-35 48.5t-41 34t-35 22t-14.5 8.5q0 46 43 78.5t99 32.5q71 0 126.5 -56t55.5 -137q0 -52 -22.5 -102.5t-56 -89t-83.5 -78.5t-91 -66t-93 -55zM141 733q0 55 40.5 94t99.5 39t97 -39t38 -94q0 -56 -38.5 -96.5 t-96.5 -40.5q-59 0 -99.5 41t-40.5 96z" />
<glyph unicode="&#x3c;" horiz-adv-x="983" d="M57 455v53l824 387l26 -100l-663 -310v-6l663 -311l-26 -100z" />
<glyph unicode="=" horiz-adv-x="983" d="M84 248l6 108h803l6 -108h-815zM84 713h815l-6 -109h-803z" />
<glyph unicode="&#x3e;" horiz-adv-x="983" d="M76 168l663 311v6l-663 310l26 100l824 -387v-53l-824 -387z" />
<glyph unicode="?" horiz-adv-x="763" d="M133 92q0 48 36 83.5t89 35.5t87 -35t34 -84q0 -51 -34 -87t-87 -36t-89 36.5t-36 86.5zM182 592q0 46 16.5 83t39 60.5t61.5 44.5t68.5 32t76.5 26q116 37 149 56q51 32 52 77q0 67 -98 119.5t-232 52.5q-46 0 -104 -8q-14 20 -14 51q0 54 41 87.5t120 33.5 q103 0 191.5 -49t138 -126t49.5 -161q0 -56 -15.5 -100.5t-37.5 -72t-59 -51t-66.5 -35.5t-73.5 -26q-105 -36 -136 -56q-62 -39 -62 -106q0 -68 67 -151l-61 4q-111 117 -111 215z" />
<glyph unicode="@" horiz-adv-x="1708" d="M98 555q10 158 80.5 299.5t180.5 242.5t257.5 158t305.5 52q159 -5 297.5 -62t236.5 -152.5t150 -230t41 -287.5q-8 -118 -50.5 -214.5t-106.5 -157t-141 -93t-157 -32.5q-50 0 -88.5 7.5t-62 18.5t-38.5 28.5t-21 34t-6.5 37t2 35.5t7.5 33l55 234h-28 q-213 -402 -348 -402q-81 0 -146 63t-65 128q0 122 71 294t162 263q106 106 221 106q66 0 118 -38.5t73 -110.5h22l45 121h109l-119 -334l-37 -334q-9 -50 16.5 -78t90.5 -28q132 0 225 117t106 307q13 180 -68 326.5t-231.5 230.5t-338.5 90q-185 6 -349 -83.5 t-266.5 -246.5t-114.5 -344q-11 -158 37 -295.5t137.5 -231.5t212.5 -148t261 -54q119 0 251 39l23 -74q-140 -47 -279 -47q-156 0 -295 60t-240 165t-155 258.5t-43 329.5zM614 326q0 -53 34.5 -83t70.5 -30t124 126.5t175 283.5q13 24 23 57.5t10 42.5q-21 43 -81 89 t-122 46q-50 0 -74 -24q-54 -53 -107 -224.5t-53 -283.5z" />
<glyph unicode="A" horiz-adv-x="1210" d="M-47 0l6 72l76 24q46 13 71.5 40t55.5 93l424 961v67l207 52l200 -1147q7 -31 20 -46t48 -22l106 -22l7 -72h-539l6 72l107 18q29 5 35.5 23t2.5 49l-45 299h-376l-68 -174q-33 -86 -33 -130v-8q4 -44 47 -55l92 -22l7 -72h-457zM399 547h328l-84 561h-10z" />
<glyph unicode="B" horiz-adv-x="1181" d="M23 0l6 72l112 22q48 8 54 49l133 994q1 4 1 8q0 32 -42 41l-105 22l-6 72h504q118 0 205 -23.5t136 -66t72 -94t23 -113.5q0 -119 -89.5 -203t-223.5 -121l10 -10q133 -26 210 -104t77 -183q0 -130 -99 -229q-64 -64 -174 -98.5t-243 -34.5h-561zM387 111l139 -31h72 q122 0 202.5 74t80.5 188q0 122 -86.5 199t-214.5 77h-125zM465 696h129q138 0 227.5 66.5t89.5 183.5q0 122 -87.5 188t-231.5 66h-57z" />
<glyph unicode="C" horiz-adv-x="1265" d="M102 543q0 153 59.5 297.5t166.5 251.5q102 102 231 159.5t275 57.5q69 0 154 -13t132 -28l148 30l-58 -419h-92l-24 270q-119 74 -265 74q-100 0 -193.5 -50t-165.5 -138.5t-115.5 -220.5t-43.5 -286q0 -243 138 -381q42 -42 107.5 -67t137.5 -25q125 0 240 62l123 278 h106l-96 -395l-104 18q-145 -49 -277 -49q-285 0 -434.5 154t-149.5 420z" />
<glyph unicode="D" horiz-adv-x="1349" d="M23 0l6 72l112 22q48 8 54 49l133 994q1 4 1 8q0 32 -42 41l-105 22l-6 72h510q281 0 444.5 -153t163.5 -402q0 -301 -202 -500q-101 -103 -261.5 -164t-355.5 -61h-452zM387 111l141 -31q119 4 220 49.5t175 127.5t116 204.5t42 273.5q0 212 -111 338.5t-327 126.5h-111 z" />
<glyph unicode="E" horiz-adv-x="1183" d="M23 0l6 72l112 22q48 8 54 49l135 994q1 4 1 8q0 32 -42 41l-105 22l-6 72h1004l-52 -381h-100l-22 199q-3 26 -7 40.5t-21 27.5t-38.5 18.5t-73 10t-110 5t-162.5 0.5h-61l-70 -510h43q123 0 157.5 7t51.5 38l65 137h80l-104 -440h-78l10 131q2 20 -10.5 29.5t-55 14.5 t-130.5 5h-39l-72 -532h49q110 0 175 1t121 5.5t82 10t48 18.5t31 27t20 40l80 189h111l-88 -371h-989z" />
<glyph unicode="F" horiz-adv-x="1153" d="M23 0l6 72l112 22q48 8 54 49l135 994q1 4 1 8q0 32 -42 41l-105 22l-6 72h983l-51 -381h-100l-23 199q-5 40 -14 57t-57.5 29t-116.5 14t-226 2h-38l-70 -522h65q122 0 157.5 7t49.5 38l68 137h78l-105 -440h-76l11 131q2 20 -11.5 29.5t-56.5 14.5t-131 5h-61l-62 -457 q-3 -21 6 -32t35 -17l107 -22l6 -72h-522z" />
<glyph unicode="G" horiz-adv-x="1357" d="M102 543q0 153 59.5 297.5t166.5 251.5q102 102 231 159.5t275 57.5q69 0 154 -13t132 -28l148 30l-58 -419h-92l-24 270q-119 74 -265 74q-100 0 -193.5 -50t-165.5 -138.5t-115.5 -220.5t-43.5 -286q0 -243 138 -381q42 -42 107.5 -67t137.5 -25q107 0 205 43l47 326 q3 24 -5.5 34.5t-37.5 14.5l-112 23l-7 71h514l-6 -71l-98 -23q-49 -11 -55 -49l-45 -295l118 -23l5 -57q-112 -30 -263 -55t-276 -25q-282 0 -429 156t-147 418z" />
<glyph unicode="H" horiz-adv-x="1476" d="M27 0l6 72l112 22q48 8 54 49l133 994q3 20 -5 31.5t-36 17.5l-103 22l-6 72h518l-6 -72l-112 -22q-48 -9 -54 -49l-57 -439h588l59 439q3 23 -5 33t-36 16l-104 22l-6 72h520l-8 -72l-111 -22q-47 -8 -53 -49l-135 -994q-3 -21 6 -32t35 -17l104 -22l6 -72h-520l6 72 l113 22q27 5 38.5 15.5t14.5 33.5l64 469h-590l-62 -469q-3 -21 6 -32t35 -17l105 -22l6 -72h-520z" />
<glyph unicode="I" horiz-adv-x="735" d="M29 0l6 72l133 22q47 8 53 49l135 994q1 5 1 10q0 32 -42 39l-125 22l-6 72h559l-6 -72l-133 -22q-47 -9 -53 -49l-133 -994q-1 -5 -1 -9q0 -33 42 -40l125 -22l6 -72h-561z" />
<glyph unicode="J" horiz-adv-x="833" d="M-43 106q0 41 28 68t76 27q129 0 150 -164h2q38 8 63.5 27t51 65.5t45.5 133.5t37 222l88 652q1 5 1 10q0 32 -42 39l-146 22l-6 72h580l-6 -72l-131 -22q-48 -9 -54 -49l-82 -625q-37 -280 -149 -411.5t-281 -131.5q-97 0 -161 36.5t-64 100.5z" />
<glyph unicode="K" horiz-adv-x="1306" d="M23 0l6 72l112 22q48 8 54 49l135 994q1 4 1 8q0 32 -42 41l-105 22l-6 72h520l-8 -72l-110 -22q-48 -9 -54 -49l-69 -514l374 333q20 20 55.5 53t50.5 47.5t34 35t26 33t7 22.5q0 19 -13 29.5t-47 19.5l-55 14l-6 72h508l-7 -70l-32 -4q-63 -10 -120.5 -43t-141.5 -102 l-367 -326l336 -565q21 -36 39 -53.5t29 -22t40 -10.5l60 -14l6 -72h-465l6 72l72 22q28 8 4 49l-268 484l-144 -121l-47 -363q-3 -21 6 -32t35 -17l105 -22l6 -72h-520z" />
<glyph unicode="L" horiz-adv-x="1142" d="M23 0l6 72l112 22q47 8 54 49l131 994q1 5 1 9q0 32 -42 40l-107 22l-6 72h539l-6 -72l-130 -22q-26 -4 -38 -16.5t-15 -32.5l-139 -1057h59q112 0 175.5 2.5t112 7.5t72.5 17.5t38 28.5t26 46l95 228h106l-98 -410h-946z" />
<glyph unicode="M" horiz-adv-x="1632" d="M-18 0l6 72l118 24q19 4 30.5 14t27.5 48t33 120t39 220l106 645q1 5 1 9q0 30 -36 36l-123 20l-6 72h438l146 -1001h10l481 1001h418l-6 -72l-131 -22q-50 -9 -53 -49l-66 -648q-17 -162 -19 -249q0 -12 -1 -24q0 -68 8 -90q9 -26 31 -30l110 -24l6 -72h-546l6 72 l118 24q17 3 28 19.5t22 62t20.5 117t22.5 194.5l65 639h-10l-524 -1087h-146l-164 1108h-10l-106 -651q-44 -276 -46 -338q0 -5 -1 -9q0 -53 28 -55l113 -24l6 -72h-444z" />
<glyph unicode="N" horiz-adv-x="1466" d="M20 0l7 72l98 16q22 4 35.5 10t27 23.5t22.5 42t19.5 72.5t19.5 108t21 154l68 503q5 40 5 70q0 39 -8 61q-14 40 -61 52l-92 24l-6 72h379l532 -989h11l67 491q35 260 35 327v9q-2 52 -31 65q-11 5 -34 9l-99 16l-6 72h479l-6 -72l-98 -16q-43 -8 -64 -32.5t-40.5 -108 t-43.5 -269.5l-108 -800h-111l-592 1095h-10l-76 -579q-20 -153 -28 -220q-5 -44 -4 -80q0 -20 1 -36q4 -48 18 -58t48 -16l97 -16l6 -72h-478z" />
<glyph unicode="O" horiz-adv-x="1423" d="M102 565q0 146 46.5 278.5t132.5 233.5q92 109 220.5 170.5t282.5 61.5q259 0 421.5 -168t162.5 -428q0 -157 -55 -300t-156 -245q-189 -199 -471 -199q-259 0 -421.5 168t-162.5 428zM311 539q0 -252 123 -375q105 -105 273 -105q92 0 169 45.5t128 118t87 164t52 182 t16 174.5q0 252 -123 375q-105 105 -272 105q-77 0 -144 -32t-115.5 -86t-86.5 -123t-61 -146.5t-34.5 -152.5t-11.5 -144z" />
<glyph unicode="P" horiz-adv-x="1150" d="M23 0l6 72l112 22q48 8 54 49l135 994q1 4 1 8q0 32 -42 41l-105 22l-6 72h500q209 0 334 -97.5t125 -254.5q0 -78 -29.5 -145t-80 -114t-117.5 -81t-144 -50t-158 -16q-65 0 -164 15l-53 -394q-1 -5 -1 -9q0 -35 42 -40l148 -22l6 -72h-563zM457 618q78 -20 145 -20 q147 0 237.5 89t90.5 245q0 121 -81 195.5t-210 74.5h-102z" />
<glyph unicode="Q" horiz-adv-x="1429" d="M102 565q0 146 46.5 278.5t132.5 233.5q92 109 220.5 170.5t282.5 61.5q259 0 421.5 -168t162.5 -428q0 -157 -55 -300t-156 -245q-168 -179 -420 -197q80 -153 213 -215q118 -56 296 -56q22 0 46 1v-68q-94 -24 -237 -24q-119 0 -200.5 18t-148.5 64.5t-117 118.5 t-104 190q-177 59 -280 210t-103 355zM311 539q0 -252 123 -375q105 -105 273 -105q92 0 169 45.5t128 118t87 164t52 182t16 174.5q0 252 -123 375q-105 105 -272 105q-77 0 -144 -32t-115.5 -86t-86.5 -123t-61 -146.5t-34.5 -152.5t-11.5 -144z" />
<glyph unicode="R" horiz-adv-x="1241" d="M25 0l6 72l110 22q47 8 54 49l131 994q1 4 1 8q0 31 -42 41l-105 22l-6 72h543q205 0 315.5 -85t110.5 -218q0 -147 -98 -245.5t-265 -141.5l213 -385q18 -36 34 -59.5t32 -35.5t22.5 -15t22.5 -7q4 -1 6 -2l57 -14l7 -72h-304l-278 565l-141 6l-60 -428q-1 -5 -1 -9 q0 -32 42 -40l123 -22l6 -72h-536zM463 666l145 -29q146 16 232 93.5t86 209.5q0 121 -77.5 190.5t-217.5 69.5h-101z" />
<glyph unicode="S" horiz-adv-x="1028" d="M39 29l24 366h84l58 -280q104 -56 254 -56q126 0 196 60.5t72 161.5v5q0 38 -13 72q-14 36 -34.5 64.5t-59.5 60.5t-73 54.5t-90 56.5q-62 38 -101 65t-78.5 62.5t-61 70.5t-35 81.5t-13.5 101.5q0 94 62 172t159.5 120t204.5 42q26 0 50.5 -1t42 -1.5t38.5 -3t32.5 -4 t32.5 -5.5t28.5 -5.5t31.5 -6.5t31 -6l106 24l-53 -393h-90l-27 254q-122 56 -256 56q-84 0 -150.5 -47.5t-66.5 -125.5q0 -98 63 -165q64 -68 209 -152q67 -39 112 -72t89.5 -79t67 -102.5t22.5 -123.5q0 -110 -64.5 -197.5t-175 -135.5t-245.5 -48q-201 0 -383 60z" />
<glyph unicode="T" horiz-adv-x="1269" d="M98 879l86 401h1114l-53 -401h-94l-25 198q-6 50 -23.5 72t-80.5 35.5t-195 15.5h-4l-139 -1057q-1 -5 -1 -10q0 -32 42 -39l141 -22l6 -72h-598l9 72l151 22q46 5 53 49l138 1057h-2q-103 0 -154.5 -2.5t-90.5 -14.5t-55.5 -30t-33.5 -55l-84 -219h-107z" />
<glyph unicode="U" horiz-adv-x="1462" d="M168 1280h520l-6 -72l-113 -22q-47 -8 -53 -49l-86 -625q-10 -78 -10 -115q0 -162 90 -238.5t244 -76.5q150 0 244 80t122 268l47 352q35 253 35 327v13q-4 49 -35 62q-11 4 -32 8l-97 16l-6 72h477l-6 -72l-98 -16q-42 -8 -62 -33t-39.5 -107t-46.5 -270l-51 -374 q-33 -220 -172.5 -329.5t-353.5 -109.5q-205 0 -333 99t-128 290q0 55 8 121l92 658q3 20 -5.5 31.5t-34.5 17.5l-105 22z" />
<glyph unicode="V" horiz-adv-x="1208" d="M68 1280h538l-6 -72l-106 -18q-41 -7 -41 -51q0 -10 2 -21l157 -925h11l389 890q11 20 11 40q-1 12 -5 23q-10 30 -51 40l-88 22l-7 72h457l-6 -72l-80 -24q-46 -13 -72 -40.5t-55 -92.5l-485 -1051h-170l-213 1118q-5 30 -18.5 45.5t-49.5 22.5l-106 22z" />
<glyph unicode="W" horiz-adv-x="1773" d="M68 1280h538l-6 -72l-106 -18q-29 -5 -36 -24t-3 -48l116 -938l9 -2l346 801l-23 139q-5 30 -19 45.5t-50 22.5l-107 22l-6 72h536l-6 -72l-106 -18q-43 -8 -43 -52q0 -9 2 -20l141 -934l10 -2l326 901q14 28 2 60.5t-51 42.5l-88 22l-6 72h456l-6 -72l-80 -24 q-91 -28 -131 -133l-397 -1051h-188l-125 813h-11l-358 -813h-184l-166 1118q-5 30 -18.5 45.5t-49.5 22.5l-106 22z" />
<glyph unicode="X" horiz-adv-x="1288" d="M-33 0l6 72l58 14q59 14 106 45t103 98l344 414l-228 408q-37 68 -61 94t-66 39l-79 24l-5 72h529l-8 -72l-84 -12q-35 -5 -46.5 -23t-3 -49t36.5 -84l140 -278h10l256 321q25 27 25 52q0 5 -2 11q-8 30 -62 44l-78 18l-6 72h485l-6 -72l-57 -14q-59 -14 -106 -45 t-103 -98l-303 -365l254 -457q37 -68 61 -94t66 -39l80 -24l4 -72h-529l9 72l84 12q53 7 53 47q0 37 -41 109l-168 327h-8l-297 -370q-25 -27 -25 -52q-1 -5 1 -11q8 -30 63 -44l77 -18l7 -72h-486z" />
<glyph unicode="Y" horiz-adv-x="1214" d="M70 1280h528l-8 -72l-84 -12q-34 -5 -44.5 -24.5t-2.5 -52.5t35 -87l180 -395h10l293 446q17 27 21.5 46.5t-9.5 36t-51 24.5l-90 18l-6 72h485l-6 -72l-57 -14q-62 -15 -106 -44t-91 -99l-340 -502l-53 -406q-1 -5 -1 -10q0 -32 42 -39l141 -22l6 -72h-598l8 72l152 22 q46 5 53 49l53 406l-245 502q-32 64 -59.5 91.5t-71.5 41.5l-80 24z" />
<glyph unicode="Z" horiz-adv-x="1153" d="M6 0l10 74l940 1116v10h-223q-86 0 -144 -2t-101 -11t-66.5 -16.5t-43.5 -28t-29.5 -36t-26.5 -49.5l-64 -170h-90l51 393h979l-10 -76l-942 -1116v-10l215 2q110 1 179.5 6t115 11.5t72.5 23.5t40.5 34t30.5 50l72 180h104l-94 -385h-975z" />
<glyph unicode="[" horiz-adv-x="753" d="M193 -455v1788h520v-90h-416v-1608h416v-90h-520z" />
<glyph unicode="\" horiz-adv-x="571" d="M16 1362h99l440 -1796h-98z" />
<glyph unicode="]" horiz-adv-x="753" d="M41 -365h416v1608h-416v90h520v-1788h-520v90z" />
<glyph unicode="^" horiz-adv-x="819" d="M186 1044l220 383h188l113 -383h-45l-175 263h-4l-252 -263h-45z" />
<glyph unicode="_" horiz-adv-x="962" d="M-80 -109l6 109h987l7 -109h-1000z" />
<glyph unicode="`" horiz-adv-x="819" d="M223 1427h205l135 -383h-45z" />
<glyph unicode="a" d="M41 223q0 160 66 324.5t163 261.5q143 143 277 143q56 0 87.5 -39t53.5 -104h12l41 141h146l-103 -346l-108 -495l59 -21l162 123l35 -37q-40 -75 -120.5 -140t-141.5 -65q-38 0 -96 21.5t-58 44.5q0 27 111 379h-17q-129 -244 -208.5 -344.5t-165.5 -100.5 q-82 0 -138.5 67.5t-56.5 186.5zM203 264q0 -155 104 -155q51 0 117 87.5t215 346.5l33 143q-38 62 -103 115t-127 53q-32 0 -67 -35q-51 -51 -111.5 -236t-60.5 -319z" />
<glyph unicode="b" horiz-adv-x="917" d="M74 94l207 1080q6 39 -13 47l-129 57l8 51l342 98l-112 -477l-107 -444h17q128 242 208 343t167 101q78 0 131 -85t53 -210q0 -164 -51.5 -307t-145.5 -237q-64 -64 -147 -105t-162 -41q-36 0 -85 16t-89 37.5t-67 43t-25 32.5zM213 176q57 -55 125.5 -94t116.5 -39 q28 0 63 35q63 63 114.5 229t51.5 307q0 86 -23.5 141.5t-70.5 55.5q-51 0 -117 -87.5t-215 -346.5z" />
<glyph unicode="c" horiz-adv-x="784" d="M61 289q0 113 39.5 231.5t105 213.5t158.5 155.5t191 60.5q95 0 161 -51t66 -121q0 -47 -29.5 -81.5t-70.5 -34.5q-88 0 -88 81q0 38 16 62q-10 15 -67.5 34t-102.5 19q-16 0 -49 -33q-57 -57 -112.5 -217t-55.5 -297q0 -100 51 -159.5t127 -59.5q43 0 98.5 28.5 t145.5 92.5l27 -37q-60 -71 -105.5 -112.5t-103.5 -68t-123 -26.5q-120 0 -199.5 92.5t-79.5 227.5z" />
<glyph unicode="d" d="M41 223q0 160 66 324.5t163 261.5q143 143 277 143q56 0 87.5 -39t53.5 -104h12l70 365q6 39 -12 47l-129 57l8 51l342 98l-201 -845l-102 -473l59 -21l162 123l35 -37q-40 -75 -120.5 -140t-141.5 -65q-38 0 -96 21.5t-58 44.5q0 27 111 379h-17 q-129 -244 -208.5 -344.5t-165.5 -100.5q-82 0 -138.5 67.5t-56.5 186.5zM203 264q0 -155 104 -155q51 0 117 87.5t215 346.5l33 143q-38 62 -103 115t-127 53q-32 0 -67 -35q-51 -51 -111.5 -236t-60.5 -319z" />
<glyph unicode="e" horiz-adv-x="774" d="M61 289q0 157 66.5 310t179.5 252t236 99q98 0 158.5 -55.5t60.5 -136.5q0 -90 -85.5 -152t-359.5 -199q-20 -10 -31.5 -15.5t-29.5 -14.5t-33 -17v-49q0 -100 51 -159.5t127 -59.5q43 0 98.5 28.5t145.5 92.5l27 -37q-60 -71 -105.5 -112.5t-103.5 -68t-123 -26.5 q-120 0 -199.5 92.5t-79.5 227.5zM225 420h4q161 84 245 141.5t113 101t29 97.5q0 34 -61.5 61t-101.5 27q-47 0 -72 -25q-40 -40 -84 -149t-72 -254z" />
<glyph unicode="f" horiz-adv-x="550" d="M-334 -375q0 50 28.5 81.5t74.5 31.5q53 0 84.5 -40.5t37.5 -103.5l113 48q35 79 92 387l142 782l-187 8l6 60l199 47q20 105 61.5 205t102.5 161q115 115 272 115q88 0 142.5 -44t54.5 -103q0 -47 -29 -80t-72 -33q-51 0 -84.5 39.5t-46.5 105.5l-165 -28 q-64 -148 -89 -346h234l8 -99h-260l-111 -586q-94 -510 -215 -639q-44 -48 -106.5 -73t-126.5 -25q-68 0 -114 36t-46 93z" />
<glyph unicode="g" horiz-adv-x="888" d="M-127 -258q0 45 27.5 86.5t73 73t89.5 53.5t91 39v10q-51 28 -77 60t-26 77q0 61 53.5 109.5t143.5 75.5v10q-60 42 -96.5 111t-36.5 145q0 107 58 190t149 125.5t196 42.5q23 0 44.5 -1t43 -4.5t36 -5.5t36 -7t29.5 -7t29.5 -7.5t23.5 -6.5h203l-41 -151l-224 49v-21 q42 -52 60 -94.5t18 -97.5q0 -88 -53.5 -162.5t-131.5 -114.5t-155 -40q-65 0 -133 24q-46 -8 -75 -40.5t-29 -61.5q0 -37 33.5 -59.5t134.5 -59.5l84 -31q60 -21 96 -35.5t83.5 -40t73.5 -50.5t45 -62.5t19 -81.5q0 -52 -34.5 -102t-97.5 -92t-165 -67.5t-225 -25.5 q-102 0 -185 27t-135.5 84.5t-52.5 136.5zM16 -229q0 -80 98.5 -137.5t241.5 -57.5q111 0 195 44.5t84 115.5q0 27 -17.5 50t-54 43.5t-71.5 35.5t-91 35q-166 57 -194 71q-191 -95 -191 -200zM266 537q3 -55 19 -101.5t32 -62.5q33 -33 72 -33q76 0 148 72 q47 49 72.5 129.5t25.5 160.5q0 60 -53 111t-115 51q-37 0 -56 -9t-36 -26q-52 -51 -82 -132q-27 -74 -27 -146v-14z" />
<glyph unicode="h" horiz-adv-x="1011" d="M35 0l74 301l172 873q6 39 -13 47l-129 57l8 51l342 98l-114 -479l-133 -573h18q103 219 166.5 334t116.5 168q73 73 159 73q55 0 99.5 -41.5t44.5 -99.5q0 -97 -84 -377q-78 -270 -96 -326l57 -18l162 123l35 -37q-40 -75 -121 -140t-142 -65q-37 0 -93 21.5t-56 44.5 q0 48 104 381q4 14 21 66.5t23.5 74.5t17 59.5t14.5 60.5t4 38q0 33 -29 60.5t-65 27.5q-87 0 -340 -527l-55 -286z" />
<glyph unicode="i" horiz-adv-x="518" d="M27 696q40 90 117.5 172t136.5 82q39 0 100.5 -22t56.5 -43l-211 -776l60 -21l162 123l34 -37q-40 -75 -120.5 -140t-141.5 -65q-36 0 -93.5 23.5t-53.5 42.5l202 778l-59 10l-156 -164zM334 1231q0 60 33 101.5t77 41.5q51 0 80 -31t29 -79q0 -60 -33.5 -102t-77.5 -42 q-51 0 -79.5 31.5t-28.5 79.5z" />
<glyph unicode="j" horiz-adv-x="516" d="M-283 -416q0 44 33 73.5t76 29.5q85 0 133 -113l29 6q47 104 139 531l149 702l-59 10l-156 -164l-34 37q40 90 117.5 172t136.5 82q39 0 100.5 -22t56.5 -43l-153 -676q-61 -268 -117 -427.5t-135 -238.5q-80 -80 -174 -80q-56 0 -99 33.5t-43 87.5zM334 1231 q0 60 33 101.5t77 41.5q51 0 80 -31t29 -79q0 -60 -33.5 -102t-77.5 -42q-51 0 -79.5 31.5t-28.5 79.5z" />
<glyph unicode="k" horiz-adv-x="897" d="M35 0l74 301l172 873q6 39 -13 47l-129 57l8 51l342 98l-114 -479l-101 -436h15l411 217v19q-44 6 -67 32t-23 64q0 45 36.5 79.5t84.5 34.5q52 0 87.5 -36.5t35.5 -81.5q0 -24 -3.5 -44.5t-8.5 -37t-17.5 -32.5t-22 -27t-31.5 -25.5t-37.5 -23.5t-47.5 -24t-53 -24.5 t-63.5 -28.5t-71.5 -32l-23 -11l150 -419h45l141 133l35 -37q-39 -86 -117 -161t-139 -75q-18 0 -55.5 20.5t-40.5 31.5l-144 458l-74 -32l-73 -459z" />
<glyph unicode="l" horiz-adv-x="512" d="M49 35l225 1139q6 39 -12 47l-129 57l8 51l338 98l-274 -1318l59 -21l162 123l35 -37q-40 -75 -120.5 -140t-141.5 -65q-35 0 -94 24t-56 42z" />
<glyph unicode="m" horiz-adv-x="1509" d="M27 696q40 90 117.5 172t136.5 82q38 0 95.5 -21t57.5 -44q0 -49 -127 -510h19q104 221 166.5 335t115.5 167q73 73 160 73q52 0 84.5 -41.5t32.5 -107.5q0 -18 -6.5 -53t-14.5 -69t-22.5 -86.5t-23 -81.5t-23.5 -79t-17 -57h19q104 221 166.5 335t115.5 167 q73 73 160 73q54 0 98.5 -41.5t44.5 -99.5q0 -97 -84 -377q-71 -246 -98 -323l60 -21l161 123l35 -37q-40 -75 -120.5 -140t-141.5 -65q-38 0 -94 21.5t-56 44.5q0 44 105 381q4 14 21 66.5t23.5 74.5t17 59.5t14.5 60.5t4 38q0 33 -29 60.5t-65 27.5q-87 0 -340 -527 l-68 -286l-168 10l119 416q9 29 26 85t27 89t18.5 69.5t8.5 55.5q0 33 -29 60.5t-65 27.5q-87 0 -340 -527l-56 -286l-168 10l72 301l104 512l-59 10l-156 -164z" />
<glyph unicode="n" horiz-adv-x="1038" d="M27 696q40 90 116.5 172t135.5 82q38 0 96.5 -21t58.5 -44q0 -49 -127 -510h19q104 221 166.5 335t115.5 167q73 73 160 73q54 0 98.5 -41.5t44.5 -99.5q0 -97 -84 -377q-14 -45 -35.5 -117.5t-37 -124.5t-25.5 -81l59 -21l162 123l35 -37q-40 -75 -120.5 -140 t-141.5 -65q-38 0 -94 21.5t-56 44.5q0 44 105 381q4 14 21 66.5t23.5 74.5t17 59.5t14.5 60.5t4 38q0 33 -29 60.5t-65 27.5q-87 0 -340 -527l-56 -286l-168 10l72 301l104 502l-57 10l-160 -154z" />
<glyph unicode="o" horiz-adv-x="901" d="M66 371q0 137 60 270.5t166.5 221t227.5 87.5q154 0 232.5 -109t78.5 -292q0 -137 -60 -270.5t-166.5 -221.5t-227.5 -88q-154 0 -232.5 109.5t-78.5 292.5zM223 313q0 -67 15.5 -128t52 -104.5t86.5 -43.5q52 0 99.5 41t81 104.5t55.5 120.5t34 107q25 121 25 215 q0 105 -39 181.5t-113 76.5q-49 0 -96 -39.5t-81 -100t-57 -116t-36 -103.5q-27 -111 -27 -211z" />
<glyph unicode="p" horiz-adv-x="974" d="M-160 -504l4 72l115 22q46 7 55 50l265 1169l-62 14l-156 -164l-34 37q40 90 117.5 172t136.5 82q39 0 100 -21.5t61 -43.5q0 -30 -110 -379h16q128 242 208 343t167 101q78 0 131 -85t53 -210q0 -159 -61 -307.5t-158 -245.5q-135 -135 -276 -135q-95 0 -160 80h-2 l-80 -407q-1 -5 -1 -9q0 -34 40 -41l137 -22l8 -72h-514zM279 197q134 -154 213 -154q28 0 63 35q66 66 128 233.5t62 302.5q0 86 -23.5 141.5t-70.5 55.5q-51 0 -117 -87.5t-215 -346.5z" />
<glyph unicode="q" horiz-adv-x="907" d="M41 223q0 160 66 324.5t163 261.5q143 143 277 143q56 0 87.5 -39t53.5 -104h12l41 141h146l-103 -346l-204 -964q-1 -7 -1 -12q0 -30 39 -38l117 -22l6 -72h-501l6 72l114 22q46 7 56 50l116 469l95 305h-17q-129 -244 -208.5 -344.5t-165.5 -100.5q-82 0 -138.5 67.5 t-56.5 186.5zM203 264q0 -155 104 -155q51 0 117 87.5t215 346.5l33 143q-38 62 -103 115t-127 53q-32 0 -67 -35q-51 -51 -111.5 -236t-60.5 -319z" />
<glyph unicode="r" horiz-adv-x="804" d="M27 696q40 90 117.5 172t136.5 82q38 0 95.5 -21t57.5 -44q0 -35 -51.5 -230.5t-79.5 -279.5h31q149 407 266 524q29 29 57.5 40t71.5 11q54 0 88.5 -34.5t34.5 -88.5q0 -56 -29.5 -92.5t-72.5 -36.5q-50 0 -74 32q-19 25 -19 63q0 11 2 24q-2 2 -4.5 4t-9.5 6t-10 0 q-97 -84 -311 -561l-56 -276l-168 10l72 301l104 512l-59 10l-156 -164z" />
<glyph unicode="s" horiz-adv-x="710" d="M-12 127q0 43 29 71.5t73 28.5q35 0 55.5 -24.5t20.5 -59.5q0 -21 -14 -45q118 -46 188 -51q31 14 68 59t41 78v8q0 30 -19 64q-22 39 -49 68.5t-70 70.5q-9 9 -14 13q-36 35 -57 57.5t-55 65.5t-50 86q-13 34 -13 67q0 8 1 16q6 60 39 109.5t80.5 79t99.5 45.5t100 16 q121 0 187.5 -34t66.5 -119q0 -45 -28 -74t-72 -29q-34 0 -55 24.5t-21 59.5q0 21 12 45q-95 42 -167 47q-29 -9 -63.5 -52.5t-37.5 -78.5q-2 -16 1 -32.5t13 -34.5t18 -31t26.5 -33.5t28 -31t32.5 -33.5l31 -31q1 -1 19.5 -20t23.5 -24t23 -25t25 -29t22.5 -29t22 -32.5 t16.5 -31.5t14 -33.5t6.5 -32.5t1.5 -34q-5 -60 -39 -110t-83 -79.5t-101 -46t-99 -16.5q-278 0 -278 158z" />
<glyph unicode="t" horiz-adv-x="620" d="M76 819l6 62q12 4 30.5 11.5t58.5 23t66.5 25.5t26.5 9l47 250h154l-57 -282h258l6 -99h-283l-151 -710l59 -21l162 123l35 -37q-40 -75 -121 -140t-142 -65q-39 0 -96 18t-53 36l160 786z" />
<glyph unicode="u" horiz-adv-x="1038" d="M57 696q40 90 117.5 172t136.5 82q38 0 96 -21t58 -44q0 -44 -105 -381q-4 -14 -15 -48.5t-16.5 -52t-14.5 -47.5t-13.5 -48t-9.5 -39.5t-7.5 -37t-2.5 -26.5q0 -33 29 -60.5t65 -27.5q88 0 340 526l55 287l168 -10l-72 -302q-83 -443 -106 -509l59 -21l162 123l35 -37 q-40 -75 -120.5 -140t-141.5 -65q-38 0 -94 21.5t-56 44.5q0 49 127 510h-18q-103 -219 -166.5 -334t-116.5 -168q-74 -74 -160 -74q-54 0 -98.5 42t-44.5 100q0 96 84 376q16 54 50 170.5t46 155.5l-59 10l-156 -164z" />
<glyph unicode="v" horiz-adv-x="884" d="M-8 696q40 90 117.5 172t136.5 82q38 0 97.5 -21t59.5 -44l-18 -776h16l246 393q78 121 78 196q0 40 -33.5 70.5t-91.5 42.5q10 70 49 105.5t92 35.5q60 0 100.5 -38.5t39.5 -114.5q0 -77 -55 -174.5t-179 -268.5l-237 -348l-174 -39l6 844l-60 10l-155 -164z" />
<glyph unicode="w" horiz-adv-x="1368" d="M-8 696q40 90 117.5 172t136.5 82q38 0 97.5 -21t59.5 -44l-6 -776h11l313 647l-2 194l67 -16l82 -16l23 -809h10l219 393q78 135 78 196q0 40 -33.5 70.5t-91.5 42.5q10 70 49 105.5t92 35.5q60 0 100 -38t40 -111q0 -21 -3 -40.5t-11 -41.5t-15.5 -40t-23.5 -46 t-26.5 -46.5t-33.5 -53l-36 -54t-41.5 -61.5t-43.5 -64l-221 -348l-174 -39v633h-6l-303 -594l-174 -39v844l-60 10l-155 -164z" />
<glyph unicode="x" d="M10 187q29 36 72 36q50 1 74 -31q20 -25 19 -67q0 -10 -1 -21l57 -10l195 348l-152 381h-47l-106 -143l-31 37q114 235 211 235q19 0 67 -20.5t52 -30.5l106 -352h4q77 172 129.5 260t88 114.5t81.5 26.5q71 0 119 -35q48 -34 47 -86v-2q-1 -56 -31 -92.5t-73 -36.5 q-49 0 -73 32q-19 25 -18 65q0 10 1 22l-60 8l-190 -336l156 -389h45l108 144l31 -37q-53 -105 -105 -170.5t-108 -65.5q-19 0 -66.5 21t-50.5 31l-108 352h-11q-95 -194 -144 -276.5t-79 -105t-76 -22.5q-70 0 -117 35q-46 34 -46 86q0 58 30 95z" />
<glyph unicode="y" horiz-adv-x="878" d="M-221 -387q0 47 34.5 80t73.5 33q52 0 92 -40q37 -36 37 -88v-8l35 4l277 392l-101 26l15 801l-60 10l-155 -164l-35 37q40 90 117.5 172t136.5 82q38 0 97.5 -21t59.5 -44l-24 -776h22l347 577v21q-107 43 -107 120q0 53 31.5 90t81.5 37q63 0 99 -38t36 -103 q0 -39 -18.5 -89.5t-61.5 -120.5t-64.5 -103t-74.5 -109l-207 -295l-121 -229q-104 -197 -200 -294t-203 -97q-63 0 -111.5 38.5t-48.5 98.5z" />
<glyph unicode="z" horiz-adv-x="831" d="M-2 76q0 55 33 94t106 86l496 424q-54 15 -194 98.5t-148 87.5l-41 -32q41 -54 41 -91q0 -38 -25 -62t-63 -24q-47 0 -72 25t-25 63q0 75 72.5 137t192.5 66q47 0 86.5 -12t63.5 -26.5t47.5 -43t32.5 -44t25 -48.5t19 -39h21l51 215q55 0 94 -32.5t39 -73.5 q0 -53 -35.5 -91t-114.5 -89l-481 -412q52 -14 196 -109t165 -102l43 35q-52 55 -52 98q0 35 27 58.5t70 23.5q42 0 65 -24.5t23 -63.5q0 -74 -65.5 -136.5t-180.5 -72.5q-65 0 -117 19.5t-87 55.5t-57.5 74.5t-41.5 88.5h-21l-55 -228q-55 0 -94 33t-39 74z" />
<glyph unicode="{" horiz-adv-x="688" d="M49 440l23 58q53 2 97.5 10t85 25t63 48t22.5 74q0 46 -19 96.5t-41.5 89.5t-41.5 96.5t-19 115.5q0 137 104.5 217.5t294.5 91.5v-72q-117 -10 -184 -63.5t-67 -126.5q0 -47 18.5 -97.5t41.5 -89t41.5 -96.5t18.5 -117q0 -66 -42.5 -124.5t-102.5 -91t-117 -33.5v-25 q91 -5 176.5 -78.5t85.5 -171.5q0 -58 -18.5 -114.5t-41.5 -94.5t-41.5 -88t-18.5 -96q0 -74 67.5 -130.5t183.5 -66.5v-67q-189 9 -294 90t-105 219q0 58 19 115t41.5 95t41.5 88t19 97q0 42 -22.5 73t-63 48t-85 26t-97.5 11z" />
<glyph unicode="|" horiz-adv-x="565" d="M236 -383v1796h94v-1796h-94z" />
<glyph unicode="}" horiz-adv-x="688" d="M49 -414q116 10 184 66.5t68 130.5q0 46 -19 96t-41.5 88t-41.5 94.5t-19 114.5q0 98 85.5 171.5t176.5 78.5v25q-57 1 -117 33.5t-102.5 91t-42.5 124.5q0 59 19 117t41.5 96.5t41.5 89t19 97.5q0 73 -67.5 126.5t-184.5 63.5v72q190 -11 295 -91.5t105 -217.5 q0 -58 -19 -115.5t-41.5 -96.5t-41.5 -89.5t-19 -96.5q0 -43 22.5 -74t63 -48t85 -25t97.5 -10l22 -58l-22 -59q-53 -2 -97.5 -11t-85 -26t-63 -48t-22.5 -73q0 -47 19 -97t41.5 -88t41.5 -95t19 -115q0 -138 -105.5 -219t-294.5 -90v67z" />
<glyph unicode="~" horiz-adv-x="753" d="M25 375q37 121 91.5 176t139.5 55q45 0 91 -23.5t76.5 -51t66 -51t61.5 -23.5q29 0 55 28.5t66 104.5h53q-37 -122 -91.5 -177t-139.5 -55q-45 0 -91 23.5t-77 51.5t-66.5 51.5t-60.5 23.5q-29 0 -55 -28.5t-66 -104.5h-53z" />
<glyph unicode="&#xa1;" horiz-adv-x="581" d="M137 63l193 816q3 12 22 11t19 -13l-21 -826q-3 -84 -94 -84h-6q-136 0 -113 96zM260 1186q0 51 34 87t87 36t89 -36.5t36 -86.5q0 -48 -36 -83.5t-89 -35.5t-87 35t-34 84z" />
<glyph unicode="&#xa2;" horiz-adv-x="774" d="M61 289q0 113 35 229t94.5 210.5t148.5 156t189 65.5h2l97 353h75l-98 -361q77 -18 123.5 -67t46.5 -107q0 -47 -32 -82t-74 -35q-37 0 -70.5 21.5t-42.5 48.5l-170 -629q54 -7 254 121l33 -37q-85 -101 -161.5 -151t-164.5 -54l-80 -311h-76l82 315q-92 17 -151.5 104.5 t-59.5 209.5zM223 311q0 -81 25.5 -135.5t68.5 -73.5l195 725q-35 21 -90 21q-16 0 -39 -23q-54 -54 -107 -218.5t-53 -295.5z" />
<glyph unicode="&#xa3;" horiz-adv-x="976" d="M-53 29q159 38 230 119.5t91 222.5q13 102 17 157h-222l7 84h221q12 173 18 226q28 209 150 329.5t301 120.5q104 0 167.5 -42.5t63.5 -110.5q0 -49 -30 -83t-78 -34q-60 0 -90.5 47t-10.5 115q-38 30 -98 30q-160 4 -197 -305q-5 -42 -9 -90.5t-8 -109.5t-7 -93h313 l6 -84h-327q-6 -68 -17 -120q-26 -142 -88 -220v-10q25 -7 87.5 -30t115.5 -37.5t94 -14.5q74 0 115 41q10 10 19.5 21.5t20 28t16.5 26t19.5 32.5t18.5 31l43 -14q-12 -132 -82.5 -221.5t-195.5 -89.5q-24 0 -47 3t-45 11l-38.5 14t-37.5 20.5t-32.5 21.5t-32.5 26.5 t-27.5 25.5t-28.5 27.5t-25 24.5q-140 -146 -348 -176z" />
<glyph unicode="&#xa4;" horiz-adv-x="890" d="M76 1032l74 74l118 -119q80 53 178 53q100 0 183 -55l112 113l72 -72l-115 -115q50 -84 50 -176q0 -94 -52 -176l127 -127l-73 -74l-125 125q-80 -53 -179 -53q-97 0 -178 51l-114 -114l-72 71l115 115q-54 80 -54 182q0 99 52 178zM240 735q0 -87 56.5 -149t149.5 -62 q92 0 148.5 62t56.5 149q0 88 -56.5 149.5t-148.5 61.5q-94 0 -150 -61.5t-56 -149.5z" />
<glyph unicode="&#xa5;" horiz-adv-x="1253" d="M109 1280h514l-7 -72l-86 -12q-51 -8 -48.5 -54.5t59.5 -162.5l155 -322h4l265 387q34 49 44.5 80.5t-1 49t-45.5 24.5l-45 10l-7 72h408l-6 -72l-29 -8q-64 -18 -110 -48t-97 -103l-297 -424h310l8 -84h-363l-22 -166h377l8 -84h-396l-20 -148q-7 -41 41 -49l149 -22 l7 -72h-592l6 72l153 22q47 5 54 49l20 148h-336l4 84h342l23 166h-369l4 84h338l-247 493q-11 23 -38 44t-61 30l-65 16z" />
<glyph unicode="&#xa6;" horiz-adv-x="565" d="M236 -285v686h94v-686h-94zM236 629v686h94v-686h-94z" />
<glyph unicode="&#xa7;" horiz-adv-x="862" d="M78 653q0 87 61 161.5t144 107.5q-31 64 -31 120q0 100 91 181.5t230 81.5q47 0 98 -16t91.5 -52t40.5 -84q0 -45 -31.5 -78t-73.5 -33q-55 0 -87 43t-38 125q-30 15 -55 15q-65 0 -100 -38t-35 -87q0 -35 14.5 -67.5t45 -63.5t58.5 -54t72 -56q15 -11 23 -17 q41 -31 57 -43.5t50.5 -41.5t50 -49t35.5 -49t28 -58.5t8 -61.5q0 -86 -60.5 -161.5t-143.5 -109.5q32 -54 32 -121q0 -44 -23 -91t-64 -89t-108 -69t-145 -27q-48 0 -99 15.5t-91.5 52.5t-40.5 86q0 46 32 77t76 31q107 0 123 -166q35 -18 78 -18q58 0 93.5 42.5 t35.5 100.5q0 46 -32.5 93.5t-63.5 73.5t-98 76q-11 9 -17 13q-45 33 -69.5 52t-60.5 52t-54.5 60t-32.5 64.5t-14 76.5zM207 729q0 -60 41.5 -109t122.5 -112q9 -6 46 -34t52 -40t43 -35.5t47 -44.5t35 -43q102 52 102 152q0 60 -41 111.5t-116 107.5q-10 7 -39 29 t-42.5 32t-38.5 30.5t-40.5 35t-33.5 34t-32 38.5q-43 -23 -74.5 -66t-31.5 -86z" />
<glyph unicode="&#xa8;" horiz-adv-x="819" d="M182 1243q0 53 33 91t88 38t88 -38t33 -91t-33 -91t-88 -38t-88 38t-33 91zM592 1243q0 53 33 91t88 38t88 -38t33 -91t-33 -91t-88 -38t-88 38t-33 91z" />
<glyph unicode="&#xa9;" horiz-adv-x="1503" d="M82 639q0 183 89.5 337.5t244 244.5t336.5 90q137 0 261 -53t213 -143.5t142 -214.5t53 -261t-53 -261t-142 -213.5t-213 -142.5t-261 -53t-261 53t-213.5 142.5t-142.5 213.5t-53 261zM160 639q0 -162 79 -300t215.5 -219t297.5 -81q121 0 230.5 48t188.5 128.5 t125.5 191.5t46.5 232t-46.5 232t-125.5 192t-188.5 129.5t-230.5 48.5q-161 0 -297.5 -81.5t-215.5 -220t-79 -300.5zM393 629q0 169 106 278t271 109q83 0 164 -25l94 25v-268h-55l-47 149q-57 45 -166 45q-102 0 -170 -75.5t-68 -198.5q0 -151 73 -242.5t204 -91.5 q72 0 114 33l70 161h57l-24 -247l-62 12q-84 -31 -176 -31q-183 0 -284 103t-101 264z" />
<glyph unicode="&#xaa;" horiz-adv-x="706" d="M117 801q0 101 46 221.5t113 187.5q99 99 203 99q69 0 103 -105h10l24 105h97l-60 -254l-78 -361l39 -10l138 121l18 -27q-40 -65 -107 -125.5t-110 -60.5q-23 0 -52.5 29.5t-29.5 48.5q0 16 11.5 52t38 113t48.5 150h-10q-103 -204 -173 -298.5t-126 -94.5 q-67 0 -105 56t-38 153zM233 821q0 -55 24 -87t58 -32q40 0 222 308l24 90q-28 46 -74.5 84.5t-91.5 38.5q-24 0 -49 -25q-38 -38 -75.5 -154.5t-37.5 -222.5z" />
<glyph unicode="&#xab;" horiz-adv-x="1003" d="M57 414v86l496 299l14 -41l-342 -307l264 -287l-26 -41zM446 414v86l498 319l14 -41l-364 -327l280 -308l-24 -41z" />
<glyph unicode="&#xac;" horiz-adv-x="983" d="M72 524l6 109h833v-434h-108v325h-731z" />
<glyph unicode="&#xad;" horiz-adv-x="671" d="M68 426l6 109h528l6 -109h-540z" />
<glyph unicode="&#xae;" horiz-adv-x="1503" d="M82 639q0 183 89.5 337.5t244 244.5t336.5 90q137 0 261 -53t213 -143.5t142 -214.5t53 -261t-53 -261t-142 -213.5t-213 -142.5t-261 -53t-261 53t-213.5 142.5t-142.5 213.5t-53 261zM160 639q0 -162 79 -300t215.5 -219t297.5 -81q121 0 230.5 48t188.5 128.5 t125.5 191.5t46.5 232t-46.5 232t-125.5 192t-188.5 129.5t-230.5 48.5q-161 0 -297.5 -81.5t-215.5 -220t-79 -300.5zM446 285l5 63l59 12q27 5 27 27v512q0 24 -27 29l-59 12l-5 64h312q133 0 200.5 -54t67.5 -131q0 -75 -44.5 -128.5t-127.5 -78.5l133 -200 q17 -22 29 -34.5t19 -16t18 -5.5l63 -8l4 -63h-202l-44 80l-137 219l-80 4v-201q0 -21 29 -27l68 -12l2 -63h-310zM657 659l78 -10q75 5 117.5 42.5t42.5 109.5q0 73 -47 105.5t-143 27.5l-48 -2v-273z" />
<glyph unicode="&#xaf;" horiz-adv-x="819" d="M217 1108l19 84h503l-6 -84h-516z" />
<glyph unicode="&#xb0;" horiz-adv-x="839" d="M139 950q0 155 109.5 267t263.5 112q138 0 231 -82.5t93 -218.5q0 -159 -109.5 -271t-267.5 -112q-135 0 -227.5 84.5t-92.5 220.5zM238 954q-1 -99 64 -161t163 -64q112 -1 189 81t79 198q1 100 -64 163.5t-167 65.5q-111 1 -186.5 -84t-77.5 -199z" />
<glyph unicode="&#xb1;" horiz-adv-x="983" d="M63 487l7 109h368v334h109v-334h366l7 -109h-373v-337h-109v337h-375zM66 12l6 109h839l7 -109h-852z" />
<glyph unicode="&#xb2;" horiz-adv-x="675" d="M2 559l2 76q41 32 114.5 86.5t111.5 83.5t90 74t77.5 77.5t44.5 72.5t19 79q0 64 -43.5 99.5t-104.5 35.5q-102 0 -219 -86l-12 31q58 64 140.5 113t174.5 49q96 0 163 -55.5t67 -141.5q0 -32 -13 -65.5t-30 -61t-52.5 -62t-62 -57.5t-77.5 -60t-80.5 -56.5t-89.5 -59 t-87 -57.5v-6h90q174 0 224.5 8t76.5 41l37 51h58l-74 -209h-545z" />
<glyph unicode="&#xb3;" horiz-adv-x="675" d="M8 639q0 30 23 52t55 22q50 0 79.5 -38.5t27.5 -84.5q30 -6 47 -6q85 0 135.5 58t50.5 136q0 58 -37 92.5t-98 34.5q-42 0 -107 -18l-16 39q16 8 58 28t60 29t51 27t48 30.5t33.5 30.5t25.5 36t7 38q0 48 -38 74t-87 26q-104 0 -215 -80l-13 35q62 66 148.5 108t175.5 42 q81 0 145 -41.5t64 -108.5q0 -63 -55.5 -114.5t-98.5 -70t-125 -46.5q-7 -3 -10 -4v-4q38 10 78 10q79 0 127.5 -44t48.5 -124q0 -78 -59 -143t-145.5 -98.5t-176.5 -33.5q-32 0 -66 6t-66.5 18.5t-53.5 35t-21 51.5z" />
<glyph unicode="&#xb4;" horiz-adv-x="819" d="M367 1044l237 383h205l-397 -383h-45z" />
<glyph unicode="&#xb6;" horiz-adv-x="1026" d="M143 874q0 107 38.5 187t108 127t156.5 69.5t193 22.5h319l-176 -1346h-104l78 598q-88 -16 -152 -16q-208 0 -334.5 101t-126.5 257z" />
<glyph unicode="&#xb7;" horiz-adv-x="475" d="M55 467q0 55 40.5 94t99.5 39t97 -39t38 -94q0 -56 -38.5 -96.5t-96.5 -40.5q-59 0 -99.5 41t-40.5 96z" />
<glyph unicode="&#xb8;" horiz-adv-x="819" d="M53 -504q344 44 344 191q0 43 -40 68.5t-119 25.5q-62 0 -129 -12l6 41l254 233h90l-176 -160q116 0 181.5 -44t65.5 -122q0 -108 -126.5 -182.5t-340.5 -87.5z" />
<glyph unicode="&#xb9;" horiz-adv-x="675" d="M66 559l2 57l143 15q33 3 37 28l82 568l-170 22l10 41l332 60l-101 -691q-2 -10 5.5 -18.5t21.5 -9.5l113 -15l4 -57h-479z" />
<glyph unicode="&#xba;" horiz-adv-x="657" d="M127 883q0 102 41.5 199t119.5 162t171 65q113 0 170 -79t57 -214q0 -101 -41 -197.5t-119 -161.5t-172 -65q-113 0 -170 79t-57 212zM244 844q0 -79 28 -137t82 -58q38 0 73.5 30t60 76t40.5 88t25 79q16 65 16 149q0 76 -27.5 128t-82.5 52q-35 0 -69.5 -29 t-59.5 -72.5t-42 -85t-26 -75.5q-18 -71 -18 -145z" />
<glyph unicode="&#xbb;" horiz-adv-x="1003" d="M2 135l365 328l-281 307l25 41l403 -311v-86l-498 -320zM393 156l342 307l-264 287l27 41l405 -291v-86l-495 -299z" />
<glyph unicode="&#xbc;" horiz-adv-x="1464" d="M41 -238l1292 1518h113l-1292 -1518h-113zM106 559l3 57l143 15q33 3 37 28l82 568l-170 22l10 41l332 60l-101 -691q-2 -10 5.5 -18.5t21.5 -9.5l113 -15l4 -57h-480zM756 -14l481 514l92 -17l-72 -485h142l-19 -70h-131l-35 -221h-143l33 221h-346zM838 -2h274l53 336 h-12z" />
<glyph unicode="&#xbd;" horiz-adv-x="1464" d="M41 -238l1292 1518h113l-1292 -1518h-113zM106 559l3 57l143 15q33 3 37 28l82 568l-170 22l10 41l332 60l-101 -691q-2 -10 5.5 -18.5t21.5 -9.5l113 -15l4 -57h-480zM750 -293l2 76q41 32 114.5 86.5t111 83.5t89.5 74t77.5 77t44.5 72.5t19 79.5q0 64 -43 99.5 t-104 35.5q-102 0 -219 -86l-13 31q57 64 140.5 113t175.5 49q96 0 162.5 -55.5t66.5 -141.5q0 -32 -13 -65.5t-30 -61t-52.5 -62t-61.5 -57.5t-77.5 -60t-80 -56.5t-89.5 -59.5t-87 -57v-6h90q174 0 224.5 8t76.5 41l37 51h57l-74 -209h-544z" />
<glyph unicode="&#xbe;" horiz-adv-x="1464" d="M41 -238l1292 1518h113l-1292 -1518h-113zM49 639q0 30 23 52t55 22q50 0 79 -38.5t27 -84.5q30 -6 48 -6q85 0 135.5 58t50.5 136q0 58 -37 92.5t-98 34.5q-42 0 -107 -18l-16 39q16 8 58 28t60 29t51 27t48 30.5t33.5 30.5t25.5 36t7 38q0 48 -38 74t-87 26 q-104 0 -215 -80l-13 35q62 66 148.5 108t175.5 42q81 0 145 -41.5t64 -108.5q0 -63 -55.5 -114.5t-98.5 -70t-125 -46.5q-7 -3 -10 -4v-4q38 10 78 10q79 0 127.5 -44t48.5 -124q0 -78 -59 -143t-145.5 -98.5t-176.5 -33.5q-32 0 -66 6t-66.5 18.5t-53.5 35t-21 51.5z M756 -14l481 514l92 -17l-72 -485h142l-19 -70h-131l-35 -221h-143l33 221h-346zM838 -2h274l53 336h-12z" />
<glyph unicode="&#xbf;" horiz-adv-x="763" d="M49 319q0 56 15.5 100.5t37.5 72t59 51t66.5 35.5t73.5 26q26 9 34 11.5t31.5 10.5t32 12.5t27 13.5t25.5 16t19.5 18.5t17 22.5t8.5 26t4 31q0 67 -68 152l62 -5q110 -116 110 -215q0 -46 -16.5 -83t-38.5 -60t-61.5 -44.5t-69 -32t-76.5 -25.5q-117 -37 -151 -58 q-50 -31 -50 -76q0 -67 98 -119.5t232 -52.5q39 0 104 9q15 -21 15 -52q0 -53 -41.5 -86.5t-120.5 -33.5q-156 0 -267.5 102.5t-111.5 232.5zM408 1198q0 51 33.5 87t86.5 36t89 -36.5t36 -86.5q0 -48 -36 -83.5t-89 -35.5t-86.5 35t-33.5 84z" />
<glyph unicode="&#xc0;" horiz-adv-x="1210" d="M-47 0l6 72l76 24q46 13 71.5 40t55.5 93l424 961v67l207 52l200 -1147q7 -31 20 -46t48 -22l106 -22l7 -72h-539l6 72l107 18q29 5 35.5 23t2.5 49l-45 299h-376l-68 -174q-36 -94 -32.5 -138t46.5 -55l92 -22l7 -72h-457zM399 547h328l-84 561h-10zM418 1769h205 l135 -383h-45z" />
<glyph unicode="&#xc1;" horiz-adv-x="1210" d="M-47 0l6 72l76 24q46 13 71.5 40t55.5 93l424 961v67l207 52l200 -1147q7 -31 20 -46t48 -22l106 -22l7 -72h-539l6 72l107 18q29 5 35.5 23t2.5 49l-45 299h-376l-68 -174q-36 -94 -32.5 -138t46.5 -55l92 -22l7 -72h-457zM399 547h328l-84 561h-10zM602 1386l238 383 h204l-397 -383h-45z" />
<glyph unicode="&#xc2;" horiz-adv-x="1210" d="M-47 0l6 72l76 24q46 13 71.5 40t55.5 93l424 961v67l207 52l200 -1147q7 -31 20 -46t48 -22l106 -22l7 -72h-539l6 72l107 18q29 5 35.5 23t2.5 49l-45 299h-376l-68 -174q-36 -94 -32.5 -138t46.5 -55l92 -22l7 -72h-457zM399 547h328l-84 561h-10zM440 1386l217 383 h189l115 -383h-46l-176 263h-4l-250 -263h-45z" />
<glyph unicode="&#xc3;" horiz-adv-x="1210" d="M-47 0l6 72l76 24q46 13 71.5 40t55.5 93l424 961v67l207 52l200 -1147q7 -31 20 -46t48 -22l106 -22l7 -72h-539l6 72l107 18q29 5 35.5 23t2.5 49l-45 299h-376l-68 -174q-36 -94 -32.5 -138t46.5 -55l92 -22l7 -72h-457zM391 1423q73 252 234 252q45 0 90.5 -23.5 t76 -51t65.5 -51t61 -23.5q29 0 55 28t67 105h54q-76 -252 -236 -252q-45 0 -91 23.5t-76.5 51t-65.5 51t-60 23.5q-29 0 -55 -28.5t-66 -104.5h-53zM399 547h328l-84 561h-10z" />
<glyph unicode="&#xc4;" horiz-adv-x="1210" d="M-47 0l6 72l76 24q46 13 71.5 40t55.5 93l424 961v67l207 52l200 -1147q7 -31 20 -46t48 -22l106 -22l7 -72h-539l6 72l107 18q29 5 35.5 23t2.5 49l-45 299h-376l-68 -174q-36 -94 -32.5 -138t46.5 -55l92 -22l7 -72h-457zM377 1585q0 53 33 91t88 38t87.5 -37.5 t32.5 -91.5t-32.5 -91.5t-87.5 -37.5t-88 38t-33 91zM399 547h328l-84 561h-10zM786 1585q0 53 33 91t88 38t88 -38t33 -91t-33 -91t-88 -38t-88 38t-33 91z" />
<glyph unicode="&#xc5;" horiz-adv-x="1210" d="M-47 0l6 72l76 24q46 13 71.5 40t55.5 93l450 1024q-37 25 -57.5 67t-19.5 89q2 78 51 131t131 53t132 -53t50 -131q0 -53 -25 -97t-69 -67l188 -1083q5 -30 18.5 -45.5t49.5 -22.5l106 -22l7 -72h-539l6 72l107 18q29 5 35.5 23t2.5 49l-45 299h-376l-68 -174 q-36 -94 -32.5 -138t46.5 -55l92 -22l7 -72h-457zM399 547h328l-84 561h-10zM596 1409q0 -53 33 -91t88 -38t88 38t33 91t-33 91t-88 38t-88 -38t-33 -91z" />
<glyph unicode="&#xc6;" horiz-adv-x="1632" d="M-96 0l6 72l76 24q78 22 147 133l559 908q10 15 2 29t-35 20l-108 22l-6 72h1095l-51 -381h-100l-23 199q-2 16 -3.5 26t-7 20.5t-11 17t-18.5 13t-26.5 10t-39 7t-51 4.5t-67.5 2.5t-83.5 1.5h-103.5h-27l-72 -510h11q123 0 157.5 7t51.5 38l65 137h80l-104 -440h-78 l10 131q2 20 -11 29.5t-55.5 14.5t-130.5 5h-6l-69 -532h14q110 0 175 1t121 5.5t82 10t48 18.5t31 27t20 40l80 189h111l-89 -371h-940l7 72l114 22q47 8 54 49l43 318h-367l-88 -146q-80 -133 -80 -176q0 -35 49 -45l92 -22l6 -72h-456zM434 547h326l90 659h-14z" />
<glyph unicode="&#xc7;" horiz-adv-x="1265" d="M102 543q0 153 59.5 297.5t166.5 251.5q102 102 231 159.5t275 57.5q69 0 154 -13t132 -28l148 30l-58 -419h-92l-24 270q-119 74 -265 74q-100 0 -193.5 -50t-165.5 -138.5t-115.5 -220.5t-43.5 -286q0 -243 138 -381q42 -42 107.5 -67t137.5 -25q125 0 240 62l123 278 h106l-96 -395l-104 18q-145 -49 -277 -49h-4l-94 -86q116 0 182 -44t66 -122q0 -108 -126.5 -182.5t-340.5 -87.5l-11 49q344 44 344 191q0 43 -40 68.5t-119 25.5q-61 0 -129 -12l6 41l178 163q-244 24 -370 175t-126 395z" />
<glyph unicode="&#xc8;" horiz-adv-x="1183" d="M23 0l6 72l112 22q48 8 54 49l135 994q6 39 -41 49l-105 22l-6 72h1004l-52 -381h-100l-22 199q-3 26 -7 40.5t-21 27.5t-38.5 18.5t-73 10t-110 5t-162.5 0.5h-61l-70 -510h43q123 0 157.5 7t51.5 38l65 137h80l-104 -440h-78l10 131q2 20 -10.5 29.5t-55 14.5t-130.5 5 h-39l-72 -532h49q110 0 175 1t121 5.5t82 10t48 18.5t31 27t20 40l80 189h111l-88 -371h-989zM446 1769h205l135 -383h-45z" />
<glyph unicode="&#xc9;" horiz-adv-x="1183" d="M23 0l6 72l112 22q48 8 54 49l135 994q6 39 -41 49l-105 22l-6 72h1004l-52 -381h-100l-22 199q-3 26 -7 40.5t-21 27.5t-38.5 18.5t-73 10t-110 5t-162.5 0.5h-61l-70 -510h43q123 0 157.5 7t51.5 38l65 137h80l-104 -440h-78l10 131q2 20 -10.5 29.5t-55 14.5t-130.5 5 h-39l-72 -532h49q110 0 175 1t121 5.5t82 10t48 18.5t31 27t20 40l80 189h111l-88 -371h-989zM549 1386l237 383h205l-397 -383h-45z" />
<glyph unicode="&#xca;" horiz-adv-x="1183" d="M23 0l6 72l112 22q48 8 54 49l135 994q6 39 -41 49l-105 22l-6 72h1004l-52 -381h-100l-22 199q-3 26 -7 40.5t-21 27.5t-38.5 18.5t-73 10t-110 5t-162.5 0.5h-61l-70 -510h43q123 0 157.5 7t51.5 38l65 137h80l-104 -440h-78l10 131q2 20 -10.5 29.5t-55 14.5t-130.5 5 h-39l-72 -532h49q110 0 175 1t121 5.5t82 10t48 18.5t31 27t20 40l80 189h111l-88 -371h-989zM449 1386l217 383h188l115 -383h-45l-176 263h-5l-249 -263h-45z" />
<glyph unicode="&#xcb;" horiz-adv-x="1183" d="M23 0l6 72l112 22q48 8 54 49l135 994q6 39 -41 49l-105 22l-6 72h1004l-52 -381h-100l-22 199q-3 26 -7 40.5t-21 27.5t-38.5 18.5t-73 10t-110 5t-162.5 0.5h-61l-70 -510h43q123 0 157.5 7t51.5 38l65 137h80l-104 -440h-78l10 131q2 20 -10.5 29.5t-55 14.5t-130.5 5 h-39l-72 -532h49q110 0 175 1t121 5.5t82 10t48 18.5t31 27t20 40l80 189h111l-88 -371h-989zM385 1585q0 53 33 91t88 38t88 -38t33 -91t-33 -91t-88 -38t-88 38t-33 91zM795 1585q0 54 32.5 91.5t87.5 37.5t88 -38t33 -91t-33 -91t-88 -38t-87.5 37.5t-32.5 91.5z" />
<glyph unicode="&#xcc;" horiz-adv-x="735" d="M29 0l6 72l133 22q47 8 53 49l135 994q7 41 -41 49l-125 22l-6 72h559l-6 -72l-133 -22q-47 -9 -53 -49l-133 -994q-6 -41 41 -49l125 -22l6 -72h-561zM180 1769h205l135 -383h-45z" />
<glyph unicode="&#xcd;" horiz-adv-x="735" d="M29 0l6 72l133 22q47 8 53 49l135 994q7 41 -41 49l-125 22l-6 72h559l-6 -72l-133 -22q-47 -9 -53 -49l-133 -994q-6 -41 41 -49l125 -22l6 -72h-561zM446 1386l238 383h205l-397 -383h-46z" />
<glyph unicode="&#xce;" horiz-adv-x="735" d="M29 0l6 72l133 22q47 8 53 49l135 994q7 41 -41 49l-125 22l-6 72h559l-6 -72l-133 -22q-47 -9 -53 -49l-133 -994q-6 -41 41 -49l125 -22l6 -72h-561zM213 1386l217 383h188l115 -383h-45l-176 263h-4l-250 -263h-45z" />
<glyph unicode="&#xcf;" horiz-adv-x="735" d="M29 0l6 72l133 22q47 8 53 49l135 994q7 41 -41 49l-125 22l-6 72h559l-6 -72l-133 -22q-47 -9 -53 -49l-133 -994q-6 -41 41 -49l125 -22l6 -72h-561zM166 1585q0 53 33 91t88 38t88 -38t33 -91t-33 -91t-88 -38t-88 38t-33 91zM575 1585q0 53 33 91t88 38t88 -38 t33 -91t-33 -91t-88 -38t-88 38t-33 91z" />
<glyph unicode="&#xd0;" horiz-adv-x="1349" d="M23 0l6 72l112 22q48 8 54 49l63 467h-168l6 84h172l60 443q6 39 -41 49l-105 22l-6 72h510q281 0 444.5 -153t163.5 -402q0 -301 -202 -500q-101 -103 -261.5 -164t-355.5 -61h-452zM387 111l141 -31q119 4 220 49.5t175 127.5t116 204.5t42 273.5q0 212 -111 338.5 t-327 126.5h-111l-67 -506h221l6 -84h-237z" />
<glyph unicode="&#xd1;" horiz-adv-x="1466" d="M20 0l7 72l98 16q22 4 35.5 10t27 23.5t22.5 42t19.5 72.5t19.5 108t21 154l68 503q11 91 -3 130.5t-61 52.5l-92 24l-6 72h379l532 -989h11l67 491q38 280 35 336q-2 52 -31 65q-11 5 -34 9l-99 16l-6 72h479l-6 -72l-98 -16q-43 -8 -64 -32.5t-40.5 -108t-43.5 -269.5 l-108 -800h-111l-592 1095h-10l-76 -579q-20 -153 -27.5 -220t-3.5 -115.5t18 -58.5t48 -16l97 -16l6 -72h-478zM459 1423q73 252 233 252q45 0 90.5 -23.5t76 -51t65.5 -51t61 -23.5q29 0 55.5 28.5t67.5 104.5h53q-76 -252 -235 -252q-45 0 -91 23.5t-76.5 51t-65.5 51 t-60 23.5q-29 0 -55 -28.5t-66 -104.5h-53z" />
<glyph unicode="&#xd2;" horiz-adv-x="1423" d="M102 565q0 146 46.5 278.5t132.5 233.5q92 109 220.5 170.5t282.5 61.5q259 0 421.5 -168t162.5 -428q0 -157 -55 -300t-156 -245q-189 -199 -471 -199q-259 0 -421.5 168t-162.5 428zM311 539q0 -252 123 -375q105 -105 273 -105q92 0 169 45.5t128 118t87 164t52 182 t16 174.5q0 252 -123 375q-105 105 -272 105q-77 0 -144 -32t-115.5 -86t-86.5 -123t-61 -146.5t-34.5 -152.5t-11.5 -144zM524 1769h205l135 -383h-45z" />
<glyph unicode="&#xd3;" horiz-adv-x="1423" d="M102 565q0 146 46.5 278.5t132.5 233.5q92 109 220.5 170.5t282.5 61.5q259 0 421.5 -168t162.5 -428q0 -157 -55 -300t-156 -245q-189 -199 -471 -199q-259 0 -421.5 168t-162.5 428zM311 539q0 -252 123 -375q105 -105 273 -105q92 0 169 45.5t128 118t87 164t52 182 t16 174.5q0 252 -123 375q-105 105 -272 105q-77 0 -144 -32t-115.5 -86t-86.5 -123t-61 -146.5t-34.5 -152.5t-11.5 -144zM709 1386l237 383h205l-397 -383h-45z" />
<glyph unicode="&#xd4;" horiz-adv-x="1423" d="M102 565q0 146 46.5 278.5t132.5 233.5q92 109 220.5 170.5t282.5 61.5q259 0 421.5 -168t162.5 -428q0 -157 -55 -300t-156 -245q-189 -199 -471 -199q-259 0 -421.5 168t-162.5 428zM311 539q0 -252 123 -375q105 -105 273 -105q92 0 169 45.5t128 118t87 164t52 182 t16 174.5q0 252 -123 375q-105 105 -272 105q-77 0 -144 -32t-115.5 -86t-86.5 -123t-61 -146.5t-34.5 -152.5t-11.5 -144zM567 1386l217 383h189l114 -383h-45l-176 263h-4l-250 -263h-45z" />
<glyph unicode="&#xd5;" horiz-adv-x="1423" d="M102 565q0 146 46.5 278.5t132.5 233.5q92 109 220.5 170.5t282.5 61.5q259 0 421.5 -168t162.5 -428q0 -157 -55 -300t-156 -245q-189 -199 -471 -199q-259 0 -421.5 168t-162.5 428zM311 539q0 -252 123 -375q105 -105 273 -105q92 0 169 45.5t128 118t87 164t52 182 t16 174.5q0 252 -123 375q-105 105 -272 105q-77 0 -144 -32t-115.5 -86t-86.5 -123t-61 -146.5t-34.5 -152.5t-11.5 -144zM518 1423q73 252 234 252q45 0 90.5 -23.5t75.5 -51t65 -51t61 -23.5q29 0 55.5 28.5t67.5 104.5h54q-76 -252 -236 -252q-45 0 -91 23.5t-76.5 51 t-65.5 51t-60 23.5q-29 0 -55 -28.5t-66 -104.5h-53z" />
<glyph unicode="&#xd6;" horiz-adv-x="1423" d="M102 565q0 146 46.5 278.5t132.5 233.5q92 109 220.5 170.5t282.5 61.5q259 0 421.5 -168t162.5 -428q0 -157 -55 -300t-156 -245q-189 -199 -471 -199q-259 0 -421.5 168t-162.5 428zM311 539q0 -252 123 -375q105 -105 273 -105q92 0 169 45.5t128 118t87 164t52 182 t16 174.5q0 252 -123 375q-105 105 -272 105q-77 0 -144 -32t-115.5 -86t-86.5 -123t-61 -146.5t-34.5 -152.5t-11.5 -144zM483 1585q0 53 33 91t88 38t88 -38t33 -91t-33 -91t-88 -38t-88 38t-33 91zM893 1585q0 53 33 91t88 38t88 -38t33 -91t-33 -91t-88 -38t-88 38 t-33 91z" />
<glyph unicode="&#xd7;" horiz-adv-x="983" d="M70 135l346 346l-346 344l77 76l345 -344l344 344l77 -76l-346 -344l346 -346l-77 -76l-344 344l-345 -344z" />
<glyph unicode="&#xd8;" horiz-adv-x="1423" d="M102 565q0 146 46.5 278.5t132.5 233.5q92 109 220.5 170.5t282.5 61.5q145 0 260 -56l91 156h96q-113 -195 -115 -197q119 -77 185.5 -207t66.5 -292q0 -157 -55 -300t-156 -245q-189 -199 -471 -199q-145 0 -260 56l-102 -177h-95l125 215q-119 79 -185.5 209.5 t-66.5 292.5zM311 539q0 -238 109 -361l569 979q-91 66 -225 66q-77 0 -144 -32t-115.5 -86t-86.5 -123t-61 -146.5t-34.5 -152.5t-11.5 -144zM483 123q89 -64 224 -64q92 0 169 45.5t128 118t87 164t52 182t16 174.5q0 236 -106 359z" />
<glyph unicode="&#xd9;" horiz-adv-x="1462" d="M168 1280h520l-6 -72l-113 -22q-47 -8 -53 -49l-86 -625q-10 -78 -10 -115q0 -162 90 -238.5t244 -76.5q150 0 244 80t122 268l47 352q39 279 35 340q-4 49 -35 62q-11 4 -32 8l-97 16l-6 72h477l-6 -72l-98 -16q-42 -8 -62 -33t-39.5 -107t-46.5 -270l-51 -374 q-33 -220 -172.5 -329.5t-353.5 -109.5q-205 0 -333 99t-128 290q0 55 8 121l92 658q3 20 -5.5 31.5t-34.5 17.5l-105 22zM586 1769h205l135 -383h-45z" />
<glyph unicode="&#xda;" horiz-adv-x="1462" d="M168 1280h520l-6 -72l-113 -22q-47 -8 -53 -49l-86 -625q-10 -78 -10 -115q0 -162 90 -238.5t244 -76.5q150 0 244 80t122 268l47 352q39 279 35 340q-4 49 -35 62q-11 4 -32 8l-97 16l-6 72h477l-6 -72l-98 -16q-42 -8 -62 -33t-39.5 -107t-46.5 -270l-51 -374 q-33 -220 -172.5 -329.5t-353.5 -109.5q-205 0 -333 99t-128 290q0 55 8 121l92 658q3 20 -5.5 31.5t-34.5 17.5l-105 22zM791 1386l237 383h205l-397 -383h-45z" />
<glyph unicode="&#xdb;" horiz-adv-x="1462" d="M168 1280h520l-6 -72l-113 -22q-47 -8 -53 -49l-86 -625q-10 -78 -10 -115q0 -162 90 -238.5t244 -76.5q150 0 244 80t122 268l47 352q39 279 35 340q-4 49 -35 62q-11 4 -32 8l-97 16l-6 72h477l-6 -72l-98 -16q-42 -8 -62 -33t-39.5 -107t-46.5 -270l-51 -374 q-33 -220 -172.5 -329.5t-353.5 -109.5q-205 0 -333 99t-128 290q0 55 8 121l92 658q3 20 -5.5 31.5t-34.5 17.5l-105 22zM598 1386l217 383h189l114 -383h-45l-176 263h-4l-250 -263h-45z" />
<glyph unicode="&#xdc;" horiz-adv-x="1462" d="M168 1280h520l-6 -72l-113 -22q-47 -8 -53 -49l-86 -625q-10 -78 -10 -115q0 -162 90 -238.5t244 -76.5q150 0 244 80t122 268l47 352q39 279 35 340q-4 49 -35 62q-11 4 -32 8l-97 16l-6 72h477l-6 -72l-98 -16q-42 -8 -62 -33t-39.5 -107t-46.5 -270l-51 -374 q-33 -220 -172.5 -329.5t-353.5 -109.5q-205 0 -333 99t-128 290q0 55 8 121l92 658q3 20 -5.5 31.5t-34.5 17.5l-105 22zM504 1585q0 53 33 91t88 38t87.5 -37.5t32.5 -91.5t-32.5 -91.5t-87.5 -37.5t-88 38t-33 91zM913 1585q0 53 33 91t88 38t88 -38t33 -91t-33 -91 t-88 -38t-88 38t-33 91z" />
<glyph unicode="&#xdd;" horiz-adv-x="1214" d="M70 1280h528l-8 -72l-84 -12q-34 -5 -44.5 -24.5t-2.5 -52.5t35 -87l180 -395h10l293 446q17 27 21.5 46.5t-9.5 36t-51 24.5l-90 18l-6 72h485l-6 -72l-57 -14q-62 -15 -106 -44t-91 -99l-340 -502l-53 -406q-7 -41 41 -49l141 -22l6 -72h-598l8 72l152 22q46 5 53 49 l53 406l-245 502q-32 64 -59.5 91.5t-71.5 41.5l-80 24zM666 1386l237 383h205l-397 -383h-45z" />
<glyph unicode="&#xde;" horiz-adv-x="1150" d="M23 0l6 72l112 22q48 8 54 49l137 994q3 20 -5 31.5t-36 17.5l-103 22l-6 72h518l-6 -72l-112 -22q-48 -9 -54 -49l-14 -113h131q209 0 334 -97.5t125 -254.5q0 -78 -29.5 -145t-80 -114t-117.5 -81t-144 -50t-158 -16q-64 0 -163 15l-21 -138q-6 -44 41 -49l148 -22 l6 -72h-563zM424 362q78 -20 145 -20q147 0 237.5 89t90.5 245q0 121 -81 195.5t-210 74.5h-102z" />
<glyph unicode="&#xdf;" horiz-adv-x="1042" d="M-313 -375q0 50 28.5 81.5t73.5 31.5q53 0 85 -41t38 -103l113 48q35 79 92 387l133 782l-178 8l6 60l194 47q107 485 433 485q132 0 214 -73t82 -187q0 -122 -76 -192t-218 -103q113 -80 193.5 -207.5t80.5 -275.5q0 -98 -53 -192t-140.5 -153t-181.5 -59 q-95 0 -157 51.5t-62 124.5q0 59 39 101.5t96 42.5q54 0 82 -30.5t27 -70t-24.5 -76.5t-61.5 -49q22 -22 71 -22q89 0 152 76.5t63 189.5q2 136 -75.5 274t-229.5 248l11 52q152 4 232.5 74t80.5 196q0 69 -44.5 122.5t-113.5 53.5q-49 0 -87.5 -19t-65 -51.5t-48.5 -86.5 t-37 -112t-30 -140l-129 -685q-99 -515 -215 -639q-47 -47 -109.5 -72.5t-124.5 -25.5q-67 0 -113 36t-46 93z" />
<glyph unicode="&#xe0;" d="M41 223q0 160 66 324.5t163 261.5q143 143 277 143q56 0 87.5 -39t53.5 -104h12l41 141h146l-103 -346l-108 -495l59 -21l162 123l35 -37q-40 -75 -120.5 -140t-141.5 -65q-38 0 -96 21.5t-58 44.5q0 27 111 379h-17q-129 -244 -208.5 -344.5t-165.5 -100.5 q-82 0 -138.5 67.5t-56.5 186.5zM203 264q0 -155 104 -155q51 0 117 87.5t215 346.5l33 143q-38 62 -103 115t-127 53q-32 0 -67 -35q-51 -51 -111.5 -236t-60.5 -319zM317 1427h205l135 -383h-45z" />
<glyph unicode="&#xe1;" d="M41 223q0 160 66 324.5t163 261.5q143 143 277 143q56 0 87.5 -39t53.5 -104h12l41 141h146l-103 -346l-108 -495l59 -21l162 123l35 -37q-40 -75 -120.5 -140t-141.5 -65q-38 0 -96 21.5t-58 44.5q0 27 111 379h-17q-129 -244 -208.5 -344.5t-165.5 -100.5 q-82 0 -138.5 67.5t-56.5 186.5zM203 264q0 -155 104 -155q51 0 117 87.5t215 346.5l33 143q-38 62 -103 115t-127 53q-32 0 -67 -35q-51 -51 -111.5 -236t-60.5 -319zM440 1044l238 383h205l-398 -383h-45z" />
<glyph unicode="&#xe2;" d="M41 223q0 160 66 324.5t163 261.5q143 143 277 143q56 0 87.5 -39t53.5 -104h12l41 141h146l-103 -346l-108 -495l59 -21l162 123l35 -37q-40 -75 -120.5 -140t-141.5 -65q-38 0 -96 21.5t-58 44.5q0 27 111 379h-17q-129 -244 -208.5 -344.5t-165.5 -100.5 q-82 0 -138.5 67.5t-56.5 186.5zM203 264q0 -155 104 -155q51 0 117 87.5t215 346.5l33 143q-38 62 -103 115t-127 53q-32 0 -67 -35q-51 -51 -111.5 -236t-60.5 -319zM289 1044l217 383h188l115 -383h-45l-176 263h-4l-250 -263h-45z" />
<glyph unicode="&#xe3;" d="M41 223q0 160 66 324.5t163 261.5q143 143 277 143q56 0 87.5 -39t53.5 -104h12l41 141h146l-103 -346l-108 -495l59 -21l162 123l35 -37q-40 -75 -120.5 -140t-141.5 -65q-38 0 -96 21.5t-58 44.5q0 27 111 379h-17q-129 -244 -208.5 -344.5t-165.5 -100.5 q-82 0 -138.5 67.5t-56.5 186.5zM203 264q0 -155 104 -155q51 0 117 87.5t215 346.5l33 143q-38 62 -103 115t-127 53q-32 0 -67 -35q-51 -51 -111.5 -236t-60.5 -319zM219 1081q73 252 234 252q45 0 90.5 -23.5t75.5 -51t65 -51t61 -23.5q29 0 55.5 28.5t67.5 104.5h54 q-76 -252 -236 -252q-45 0 -91 23.5t-76.5 51t-65.5 51t-60 23.5q-29 0 -55 -28.5t-66 -104.5h-53z" />
<glyph unicode="&#xe4;" d="M41 223q0 160 66 324.5t163 261.5q143 143 277 143q56 0 87.5 -39t53.5 -104h12l41 141h146l-103 -346l-108 -495l59 -21l162 123l35 -37q-40 -75 -120.5 -140t-141.5 -65q-38 0 -96 21.5t-58 44.5q0 27 111 379h-17q-129 -244 -208.5 -344.5t-165.5 -100.5 q-82 0 -138.5 67.5t-56.5 186.5zM203 264q0 -155 104 -155q51 0 117 87.5t215 346.5l33 143q-38 62 -103 115t-127 53q-32 0 -67 -35q-51 -51 -111.5 -236t-60.5 -319zM256 1243q0 53 33 91t88 38t88 -38t33 -91t-33 -91t-88 -38t-88 38t-33 91zM666 1243q0 54 32.5 91.5 t87.5 37.5t88 -38t33 -91t-33 -91t-88 -38t-87.5 37.5t-32.5 91.5z" />
<glyph unicode="&#xe5;" d="M41 223q0 160 66 324.5t163 261.5q143 143 277 143q56 0 87.5 -39t53.5 -104h12l41 141h146l-103 -346l-108 -495l59 -21l162 123l35 -37q-40 -75 -120.5 -140t-141.5 -65q-38 0 -96 21.5t-58 44.5q0 27 111 379h-17q-129 -244 -208.5 -344.5t-165.5 -100.5 q-82 0 -138.5 67.5t-56.5 186.5zM203 264q0 -155 104 -155q51 0 117 87.5t215 346.5l33 143q-38 62 -103 115t-127 53q-32 0 -67 -35q-51 -51 -111.5 -236t-60.5 -319zM399 1243q2 78 51.5 131t131.5 53t132 -53t50 -131t-50 -131t-132 -53q-83 0 -134 53.5t-49 130.5z M461 1243q0 -53 33 -91t88 -38t87.5 37.5t32.5 91.5t-32.5 91.5t-87.5 37.5t-88 -38t-33 -91z" />
<glyph unicode="&#xe6;" horiz-adv-x="1253" d="M41 264q0 161 56.5 305t152.5 240q143 143 276 143q35 0 65 -22.5t51.5 -59.5t35.5 -73.5t24 -75.5q75 119 148.5 174t171.5 55t158.5 -55.5t60.5 -136.5q0 -90 -85.5 -152t-359.5 -199q-61 -30 -94 -47v-49q0 -100 51.5 -159.5t127.5 -59.5q42 0 97 28t146 93l27 -37 q-60 -71 -105.5 -112.5t-103.5 -68t-123 -26.5q-120 0 -199 92.5t-79 227.5v20q-92 -162 -178.5 -251t-143.5 -89q-84 0 -131 83t-47 212zM203 305q0 -79 22.5 -131.5t55.5 -52.5q21 0 43.5 12t47.5 39.5t44.5 52.5t49 72.5t46 76t49.5 87t47 82.5q32 54 49 88 q-39 90 -106.5 156.5t-132.5 66.5q-33 0 -68 -35q-49 -49 -98 -213.5t-49 -300.5zM705 420h4q161 84 245 141.5t113 101t29 97.5q0 34 -62 61t-102 27q-47 0 -72 -25q-40 -40 -83.5 -149t-71.5 -254z" />
<glyph unicode="&#xe7;" horiz-adv-x="784" d="M59 -504q344 44 344 191q0 43 -40 68.5t-119 25.5q-62 0 -129 -12l6 41q11 10 29.5 27t57.5 52.5t64.5 59.5t24.5 24q-104 15 -170 104.5t-66 211.5q0 113 39.5 231.5t105 213.5t158.5 155.5t191 60.5q95 0 161 -51t66 -121q0 -47 -29.5 -81.5t-70.5 -34.5q-88 0 -88 81 q0 38 16 62q-10 15 -67.5 34t-102.5 19q-16 0 -49 -33q-57 -57 -112.5 -217t-55.5 -297q0 -100 51 -159.5t127 -59.5q43 0 98.5 28.5t145.5 92.5l27 -37q-81 -95 -144.5 -143.5t-140.5 -59.5l-98 -90q116 0 182 -44t66 -122q0 -108 -126.5 -182.5t-340.5 -87.5z" />
<glyph unicode="&#xe8;" horiz-adv-x="774" d="M61 289q0 157 66.5 310t179.5 252t236 99q98 0 158.5 -55.5t60.5 -136.5q0 -90 -85.5 -152t-359.5 -199q-20 -10 -31.5 -15.5t-29.5 -14.5t-33 -17v-49q0 -100 51 -159.5t127 -59.5q43 0 98.5 28.5t145.5 92.5l27 -37q-60 -71 -105.5 -112.5t-103.5 -68t-123 -26.5 q-120 0 -199.5 92.5t-79.5 227.5zM225 420h4q161 84 245 141.5t113 101t29 97.5q0 34 -61.5 61t-101.5 27q-47 0 -72 -25q-40 -40 -84 -149t-72 -254zM283 1427h204l136 -383h-45z" />
<glyph unicode="&#xe9;" horiz-adv-x="774" d="M61 289q0 157 66.5 310t179.5 252t236 99q98 0 158.5 -55.5t60.5 -136.5q0 -90 -85.5 -152t-359.5 -199q-20 -10 -31.5 -15.5t-29.5 -14.5t-33 -17v-49q0 -100 51 -159.5t127 -59.5q43 0 98.5 28.5t145.5 92.5l27 -37q-60 -71 -105.5 -112.5t-103.5 -68t-123 -26.5 q-120 0 -199.5 92.5t-79.5 227.5zM225 420h4q161 84 245 141.5t113 101t29 97.5q0 34 -61.5 61t-101.5 27q-47 0 -72 -25q-40 -40 -84 -149t-72 -254zM426 1044l238 383h204l-397 -383h-45z" />
<glyph unicode="&#xea;" horiz-adv-x="774" d="M61 289q0 157 66.5 310t179.5 252t236 99q98 0 158.5 -55.5t60.5 -136.5q0 -90 -85.5 -152t-359.5 -199q-20 -10 -31.5 -15.5t-29.5 -14.5t-33 -17v-49q0 -100 51 -159.5t127 -59.5q43 0 98.5 28.5t145.5 92.5l27 -37q-60 -71 -105.5 -112.5t-103.5 -68t-123 -26.5 q-120 0 -199.5 92.5t-79.5 227.5zM225 420h4q161 84 245 141.5t113 101t29 97.5q0 34 -61.5 61t-101.5 27q-47 0 -72 -25q-40 -40 -84 -149t-72 -254zM264 1044l217 383h189l114 -383h-45l-176 263h-4l-250 -263h-45z" />
<glyph unicode="&#xeb;" horiz-adv-x="774" d="M61 289q0 157 66.5 310t179.5 252t236 99q98 0 158.5 -55.5t60.5 -136.5q0 -90 -85.5 -152t-359.5 -199q-20 -10 -31.5 -15.5t-29.5 -14.5t-33 -17v-49q0 -100 51 -159.5t127 -59.5q43 0 98.5 28.5t145.5 92.5l27 -37q-60 -71 -105.5 -112.5t-103.5 -68t-123 -26.5 q-120 0 -199.5 92.5t-79.5 227.5zM221 1243q0 53 33 91t88 38t88 -38t33 -91t-33 -91t-88 -38t-88 38t-33 91zM225 420h4q161 84 245 141.5t113 101t29 97.5q0 34 -61.5 61t-101.5 27q-47 0 -72 -25q-40 -40 -84 -149t-72 -254zM631 1243q0 53 33 91t88 38t87.5 -37.5 t32.5 -91.5t-32.5 -91.5t-87.5 -37.5t-88 38t-33 91z" />
<glyph unicode="&#xec;" horiz-adv-x="518" d="M27 696q40 90 117.5 172t136.5 82q39 0 100.5 -22t56.5 -43l-211 -776l60 -21l162 123l34 -37q-40 -75 -120.5 -140t-141.5 -65q-36 0 -93.5 23.5t-53.5 42.5l202 778l-59 10l-156 -164zM92 1427h205l135 -383h-45z" />
<glyph unicode="&#xed;" horiz-adv-x="518" d="M27 696q40 90 117.5 172t136.5 82q39 0 100.5 -22t56.5 -43l-211 -776l60 -21l162 123l34 -37q-40 -75 -120.5 -140t-141.5 -65q-36 0 -93.5 23.5t-53.5 42.5l202 778l-59 10l-156 -164zM215 1044l238 383h204l-397 -383h-45z" />
<glyph unicode="&#xee;" horiz-adv-x="518" d="M27 696q40 90 117.5 172t136.5 82q39 0 100.5 -22t56.5 -43l-211 -776l60 -21l162 123l34 -37q-40 -75 -120.5 -140t-141.5 -65q-36 0 -93.5 23.5t-53.5 42.5l202 778l-59 10l-156 -164zM74 1044l217 383h188l115 -383h-45l-176 263h-4l-250 -263h-45z" />
<glyph unicode="&#xef;" horiz-adv-x="518" d="M27 696q40 90 117.5 172t136.5 82q39 0 100.5 -22t56.5 -43l-211 -776l60 -21l162 123l34 -37q-40 -75 -120.5 -140t-141.5 -65q-36 0 -93.5 23.5t-53.5 42.5l202 778l-59 10l-156 -164zM31 1243q0 53 33 91t88 38t87.5 -37.5t32.5 -91.5t-32.5 -91.5t-87.5 -37.5t-88 38 t-33 91zM440 1243q0 53 33 91t88 38t88 -38t33 -91t-33 -91t-88 -38t-88 38t-33 91z" />
<glyph unicode="&#xf0;" horiz-adv-x="901" d="M66 371q0 138 57.5 270.5t161.5 220.5t225 88q138 0 195 -129q-19 201 -144 334l-328 -100l21 88l238 74q-77 57 -201 96l39 86q155 -49 274 -148l291 90l-21 -88l-202 -63q93 -96 143 -220t51 -265q0 -187 -67 -357t-180.5 -274.5t-241.5 -104.5q-154 0 -232.5 109.5 t-78.5 292.5zM223 313q0 -67 15.5 -128t52 -104.5t86.5 -43.5q52 0 99.5 41t81 104.5t55.5 120.5t34 107q10 48 17.5 117t7.5 98q0 105 -39 181.5t-113 76.5q-49 0 -96 -39.5t-81 -100t-57 -116t-36 -103.5q-27 -111 -27 -211z" />
<glyph unicode="&#xf1;" horiz-adv-x="1038" d="M27 696q40 90 116.5 172t135.5 82q38 0 96.5 -21t58.5 -44q0 -49 -127 -510h19q104 221 166.5 335t115.5 167q73 73 160 73q54 0 98.5 -41.5t44.5 -99.5q0 -97 -84 -377q-14 -45 -35.5 -117.5t-37 -124.5t-25.5 -81l59 -21l162 123l35 -37q-40 -75 -120.5 -140 t-141.5 -65q-38 0 -94 21.5t-56 44.5q0 44 105 381q4 14 21 66.5t23.5 74.5t17 59.5t14.5 60.5t4 38q0 33 -29 60.5t-65 27.5q-87 0 -340 -527l-56 -286l-168 10l72 301l104 502l-57 10l-160 -154zM244 1081q73 252 233 252q45 0 90.5 -23.5t76 -51t65.5 -51t61 -23.5 q29 0 55.5 28.5t67.5 104.5h53q-76 -252 -235 -252q-45 0 -91 23.5t-76.5 51t-65.5 51t-60 23.5q-29 0 -55 -28.5t-66 -104.5h-53z" />
<glyph unicode="&#xf2;" horiz-adv-x="901" d="M66 371q0 137 60 270.5t166.5 221t227.5 87.5q154 0 232.5 -109t78.5 -292q0 -137 -60 -270.5t-166.5 -221.5t-227.5 -88q-154 0 -232.5 109.5t-78.5 292.5zM223 313q0 -67 15.5 -128t52 -104.5t86.5 -43.5q52 0 99.5 41t81 104.5t55.5 120.5t34 107q25 121 25 215 q0 105 -39 181.5t-113 76.5q-49 0 -96 -39.5t-81 -100t-57 -116t-36 -103.5q-27 -111 -27 -211zM305 1427h205l135 -383h-45z" />
<glyph unicode="&#xf3;" horiz-adv-x="901" d="M66 371q0 137 60 270.5t166.5 221t227.5 87.5q154 0 232.5 -109t78.5 -292q0 -137 -60 -270.5t-166.5 -221.5t-227.5 -88q-154 0 -232.5 109.5t-78.5 292.5zM223 313q0 -67 15.5 -128t52 -104.5t86.5 -43.5q52 0 99.5 41t81 104.5t55.5 120.5t34 107q25 121 25 215 q0 105 -39 181.5t-113 76.5q-49 0 -96 -39.5t-81 -100t-57 -116t-36 -103.5q-27 -111 -27 -211zM449 1044l237 383h205l-397 -383h-45z" />
<glyph unicode="&#xf4;" horiz-adv-x="901" d="M66 371q0 137 60 270.5t166.5 221t227.5 87.5q154 0 232.5 -109t78.5 -292q0 -137 -60 -270.5t-166.5 -221.5t-227.5 -88q-154 0 -232.5 109.5t-78.5 292.5zM223 313q0 -67 15.5 -128t52 -104.5t86.5 -43.5q52 0 99.5 41t81 104.5t55.5 120.5t34 107q25 121 25 215 q0 105 -39 181.5t-113 76.5q-49 0 -96 -39.5t-81 -100t-57 -116t-36 -103.5q-27 -111 -27 -211zM287 1044l217 383h188l115 -383h-45l-176 263h-4l-250 -263h-45z" />
<glyph unicode="&#xf5;" horiz-adv-x="901" d="M66 371q0 137 60 270.5t166.5 221t227.5 87.5q154 0 232.5 -109t78.5 -292q0 -137 -60 -270.5t-166.5 -221.5t-227.5 -88q-154 0 -232.5 109.5t-78.5 292.5zM223 313q0 -67 15.5 -128t52 -104.5t86.5 -43.5q52 0 99.5 41t81 104.5t55.5 120.5t34 107q25 121 25 215 q0 105 -39 181.5t-113 76.5q-49 0 -96 -39.5t-81 -100t-57 -116t-36 -103.5q-27 -111 -27 -211zM229 1081q73 252 234 252q45 0 90.5 -23.5t76 -51t65.5 -51t61 -23.5q29 0 55.5 28.5t67.5 104.5h53q-76 -252 -236 -252q-45 0 -91 23.5t-76.5 51t-65.5 51t-60 23.5 q-29 0 -54.5 -28.5t-65.5 -104.5h-54z" />
<glyph unicode="&#xf6;" horiz-adv-x="901" d="M66 371q0 137 60 270.5t166.5 221t227.5 87.5q154 0 232.5 -109t78.5 -292q0 -137 -60 -270.5t-166.5 -221.5t-227.5 -88q-154 0 -232.5 109.5t-78.5 292.5zM223 313q0 -67 15.5 -128t52 -104.5t86.5 -43.5q52 0 99.5 41t81 104.5t55.5 120.5t34 107q25 121 25 215 q0 105 -39 181.5t-113 76.5q-49 0 -96 -39.5t-81 -100t-57 -116t-36 -103.5q-27 -111 -27 -211zM264 1243q0 53 33 91t88 38t88 -38t33 -91t-33 -91t-88 -38t-88 38t-33 91zM674 1243q0 53 33 91t88 38t87.5 -37.5t32.5 -91.5t-32.5 -91.5t-87.5 -37.5t-88 38t-33 91z" />
<glyph unicode="&#xf7;" horiz-adv-x="995" d="M84 426l6 109h817l6 -109h-829zM395 193q0 42 31 73t76 31t74.5 -31t29.5 -73q0 -43 -30 -75t-74 -32q-45 0 -76 32.5t-31 74.5zM395 766q0 42 30 74t75 32t75.5 -32t30.5 -74t-30.5 -74.5t-75.5 -32.5t-75 32t-30 75z" />
<glyph unicode="&#xf8;" horiz-adv-x="901" d="M-12 -264l180 313q-102 105 -102 322q0 137 60 270.5t166.5 221t227.5 87.5q86 0 148 -35l178 310h82l-203 -353q106 -106 106 -323q0 -137 -60 -270.5t-166.5 -221.5t-227.5 -88q-91 0 -152 37l-155 -270h-82zM223 313q0 -69 19 -137l376 653q-41 54 -98 54 q-49 0 -96 -39.5t-81 -100t-57 -116t-36 -103.5q-27 -111 -27 -211zM276 96q40 -59 101 -59q52 0 99.5 41t81 104.5t55.5 120.5t34 107q25 121 25 215q0 61 -17 127q-377 -656 -379 -656z" />
<glyph unicode="&#xf9;" horiz-adv-x="1038" d="M57 696q40 90 117.5 172t136.5 82q38 0 96 -21t58 -44q0 -44 -105 -381q-4 -14 -15 -48.5t-16.5 -52t-14.5 -47.5t-13.5 -48t-9.5 -39.5t-7.5 -37t-2.5 -26.5q0 -33 29 -60.5t65 -27.5q88 0 340 526l55 287l168 -10l-72 -302q-83 -443 -106 -509l59 -21l162 123l35 -37 q-40 -75 -120.5 -140t-141.5 -65q-38 0 -94 21.5t-56 44.5q0 49 127 510h-18q-103 -219 -166.5 -334t-116.5 -168q-74 -74 -160 -74q-54 0 -98.5 42t-44.5 100q0 96 84 376q16 54 50 170.5t46 155.5l-59 10l-156 -164zM332 1427h205l135 -383h-45z" />
<glyph unicode="&#xfa;" horiz-adv-x="1038" d="M57 696q40 90 117.5 172t136.5 82q38 0 96 -21t58 -44q0 -44 -105 -381q-4 -14 -15 -48.5t-16.5 -52t-14.5 -47.5t-13.5 -48t-9.5 -39.5t-7.5 -37t-2.5 -26.5q0 -33 29 -60.5t65 -27.5q88 0 340 526l55 287l168 -10l-72 -302q-83 -443 -106 -509l59 -21l162 123l35 -37 q-40 -75 -120.5 -140t-141.5 -65q-38 0 -94 21.5t-56 44.5q0 49 127 510h-18q-103 -219 -166.5 -334t-116.5 -168q-74 -74 -160 -74q-54 0 -98.5 42t-44.5 100q0 96 84 376q16 54 50 170.5t46 155.5l-59 10l-156 -164zM496 1044l237 383h205l-397 -383h-45z" />
<glyph unicode="&#xfb;" horiz-adv-x="1038" d="M57 696q40 90 117.5 172t136.5 82q38 0 96 -21t58 -44q0 -44 -105 -381q-4 -14 -15 -48.5t-16.5 -52t-14.5 -47.5t-13.5 -48t-9.5 -39.5t-7.5 -37t-2.5 -26.5q0 -33 29 -60.5t65 -27.5q88 0 340 526l55 287l168 -10l-72 -302q-83 -443 -106 -509l59 -21l162 123l35 -37 q-40 -75 -120.5 -140t-141.5 -65q-38 0 -94 21.5t-56 44.5q0 49 127 510h-18q-103 -219 -166.5 -334t-116.5 -168q-74 -74 -160 -74q-54 0 -98.5 42t-44.5 100q0 96 84 376q16 54 50 170.5t46 155.5l-59 10l-156 -164zM334 1044l217 383h188l115 -383h-45l-176 263h-4 l-250 -263h-45z" />
<glyph unicode="&#xfc;" horiz-adv-x="1038" d="M57 696q40 90 117.5 172t136.5 82q38 0 96 -21t58 -44q0 -44 -105 -381q-4 -14 -15 -48.5t-16.5 -52t-14.5 -47.5t-13.5 -48t-9.5 -39.5t-7.5 -37t-2.5 -26.5q0 -33 29 -60.5t65 -27.5q88 0 340 526l55 287l168 -10l-72 -302q-83 -443 -106 -509l59 -21l162 123l35 -37 q-40 -75 -120.5 -140t-141.5 -65q-38 0 -94 21.5t-56 44.5q0 49 127 510h-18q-103 -219 -166.5 -334t-116.5 -168q-74 -74 -160 -74q-54 0 -98.5 42t-44.5 100q0 96 84 376q16 54 50 170.5t46 155.5l-59 10l-156 -164zM311 1243q0 53 33 91t88 38t88 -38t33 -91t-33 -91 t-88 -38t-88 38t-33 91zM721 1243q0 53 33 91t88 38t88 -38t33 -91t-33 -91t-88 -38t-88 38t-33 91z" />
<glyph unicode="&#xfd;" horiz-adv-x="878" d="M-221 -387q0 47 34.5 80t73.5 33q52 0 92 -39.5t37 -96.5l35 4l277 392l-101 26l15 801l-60 10l-155 -164l-35 37q40 90 117.5 172t136.5 82q38 0 97.5 -21t59.5 -44l-24 -776h22l347 577v21q-107 43 -107 120q0 53 31.5 90t81.5 37q63 0 99 -38t36 -103 q0 -39 -18.5 -89.5t-61.5 -120.5t-64.5 -103t-74.5 -109l-207 -295l-121 -229q-104 -197 -200 -294t-203 -97q-63 0 -111.5 38.5t-48.5 98.5zM436 1044l238 383h205l-398 -383h-45z" />
<glyph unicode="&#xfe;" horiz-adv-x="913" d="M-221 -504l4 72l115 22q46 7 55 50l328 1534q9 38 -13 47l-129 57l8 51l342 98l-112 -477l-107 -444h17q128 242 208 343t167 101q78 0 131 -85t53 -210q0 -159 -61 -307.5t-158 -245.5q-135 -135 -277 -135q-95 0 -160 80h-2l-79 -407q-6 -42 38 -50l138 -22l8 -72h-514 zM217 197q134 -154 213 -154q29 0 64 35q66 66 128 233.5t62 302.5q0 86 -23.5 141.5t-70.5 55.5q-51 0 -117 -87.5t-215 -346.5z" />
<glyph unicode="&#xff;" horiz-adv-x="878" d="M-221 -387q0 47 34.5 80t73.5 33q52 0 92 -39.5t37 -96.5l35 4l277 392l-101 26l15 801l-60 10l-155 -164l-35 37q40 90 117.5 172t136.5 82q38 0 97.5 -21t59.5 -44l-24 -776h22l347 577v21q-107 43 -107 120q0 53 31.5 90t81.5 37q63 0 99 -38t36 -103 q0 -39 -18.5 -89.5t-61.5 -120.5t-64.5 -103t-74.5 -109l-207 -295l-121 -229q-104 -197 -200 -294t-203 -97q-63 0 -111.5 38.5t-48.5 98.5zM231 1243q0 53 33 91t88 38t88 -38t33 -91t-33 -91t-88 -38t-88 38t-33 91zM641 1243q0 53 33 91t88 38t88 -38t33 -91t-33 -91 t-88 -38t-88 38t-33 91z" />
<glyph unicode="&#x152;" horiz-adv-x="1851" d="M102 555q0 300 203 500q103 103 262.5 164t354.5 61h938l-72 -381h-80l-22 199q-3 26 -7 40.5t-21 27.5t-38.5 18.5t-73 10t-110 5t-162.5 0.5h-62l-69 -510h43q115 0 162.5 13t68.5 47l43 122h80l-104 -440h-78l10 131q2 20 -11 29.5t-55.5 14.5t-130.5 5h-38l-72 -532 h49q110 0 175 1t121 5.5t82 10t48 18.5t31 27t20 40l80 189h111l-88 -371h-979q-281 0 -445 153t-164 402zM315 545q0 -212 111.5 -338.5t327.5 -126.5h110l146 1089l-142 31q-119 -4 -220 -49.5t-175 -127.5t-116 -204.5t-42 -273.5z" />
<glyph unicode="&#x153;" horiz-adv-x="1347" d="M66 369q0 82 21 165.5t62 157.5t95 132t126 92t150 34q208 0 268 -207q62 96 146.5 151.5t181.5 55.5q98 0 158.5 -55.5t60.5 -136.5q0 -39 -15.5 -71t-47 -62t-86 -62.5t-126 -70t-172.5 -87.5q-59 -29 -91 -45v-49q0 -100 51 -159.5t127 -59.5q43 0 98.5 28.5 t145.5 92.5l26 -37q-60 -71 -105.5 -112.5t-103.5 -68t-123 -26.5q-89 0 -147 44.5t-86 121.5q-125 -166 -303 -166q-154 0 -232.5 108.5t-78.5 291.5zM223 313q0 -67 15.5 -128t52 -104.5t86.5 -43.5q52 0 99.5 41t81 104.5t55.5 120.5t34 107q25 121 25 215 q0 105 -39 181.5t-113 76.5q-49 0 -96 -39.5t-81 -100t-57 -116t-36 -103.5q-27 -111 -27 -211zM799 420h4q161 84 245 141.5t113 101t29 97.5q0 34 -62 61t-102 27q-47 0 -72 -25q-40 -40 -83.5 -149t-71.5 -254z" />
<glyph unicode="&#x178;" horiz-adv-x="1214" d="M70 1280h528l-8 -72l-84 -12q-34 -5 -44.5 -24.5t-2.5 -52.5t35 -87l180 -395h10l293 446q17 27 21.5 46.5t-9.5 36t-51 24.5l-90 18l-6 72h485l-6 -72l-57 -14q-62 -15 -106 -44t-91 -99l-340 -502l-53 -406q-7 -41 41 -49l141 -22l6 -72h-598l8 72l152 22q46 5 53 49 l53 406l-245 502q-32 64 -59.5 91.5t-71.5 41.5l-80 24zM420 1585q0 53 33 91t88 38t88 -38t33 -91t-33 -91t-88 -38t-88 38t-33 91zM829 1585q0 53 33 91t88 38t88 -38t33 -91t-33 -91t-88 -38t-88 38t-33 91z" />
<glyph unicode="&#x2c6;" horiz-adv-x="819" d="M205 1044l217 383h188l115 -383h-45l-176 263h-4l-250 -263h-45z" />
<glyph unicode="&#x2dc;" horiz-adv-x="819" d="M135 1081q73 252 234 252q45 0 90.5 -23.5t76 -51t65.5 -51t61 -23.5q29 0 55 28t67 105h54q-76 -252 -236 -252q-45 0 -91 23.5t-76.5 51t-65.5 51t-60 23.5q-29 0 -55 -28.5t-66 -104.5h-53z" />
<glyph unicode="&#x2000;" horiz-adv-x="884" />
<glyph unicode="&#x2001;" horiz-adv-x="1769" />
<glyph unicode="&#x2002;" horiz-adv-x="884" />
<glyph unicode="&#x2003;" horiz-adv-x="1769" />
<glyph unicode="&#x2004;" horiz-adv-x="589" />
<glyph unicode="&#x2005;" horiz-adv-x="442" />
<glyph unicode="&#x2006;" horiz-adv-x="294" />
<glyph unicode="&#x2007;" horiz-adv-x="294" />
<glyph unicode="&#x2008;" horiz-adv-x="221" />
<glyph unicode="&#x2009;" horiz-adv-x="353" />
<glyph unicode="&#x200a;" horiz-adv-x="98" />
<glyph unicode="&#x2010;" horiz-adv-x="671" d="M68 426l6 109h528l6 -109h-540z" />
<glyph unicode="&#x2011;" horiz-adv-x="671" d="M68 426l6 109h528l6 -109h-540z" />
<glyph unicode="&#x2012;" horiz-adv-x="671" d="M68 426l6 109h528l6 -109h-540z" />
<glyph unicode="&#x2013;" horiz-adv-x="962" d="M59 426l7 109h843l6 -109h-856z" />
<glyph unicode="&#x2014;" horiz-adv-x="1925" d="M59 426l7 109h1806l6 -109h-1819z" />
<glyph unicode="&#x2018;" horiz-adv-x="475" d="M113 938q0 89 63.5 175.5t161 151t219.5 111.5l31 -41q-98 -47 -181 -132t-83 -165q0 -16 4 -31.5t10.5 -28.5t14.5 -25t17.5 -22t18.5 -19t17.5 -15.5t14.5 -11.5t9.5 -7.5t3.5 -3.5q-12 -48 -53.5 -78t-97.5 -30q-73 0 -121.5 50.5t-48.5 121.5z" />
<glyph unicode="&#x2019;" horiz-adv-x="475" d="M90 805q84 46 147.5 116.5t63.5 143.5q0 32 -14.5 61t-34.5 48.5t-40.5 34t-35 22t-14.5 8.5q0 46 43 78.5t98 32.5q71 0 126.5 -56t55.5 -137q0 -52 -22.5 -102.5t-56 -89t-83.5 -78.5t-91 -66t-93 -55z" />
<glyph unicode="&#x201a;" horiz-adv-x="475" d="M-61 -305q84 46 147.5 116.5t63.5 143.5q0 32 -14.5 61t-35 48.5t-41 34t-35 22t-14.5 8.5q0 46 43 78.5t99 32.5q71 0 126.5 -56t55.5 -137q0 -52 -22.5 -102.5t-56 -89t-83.5 -78.5t-91 -66t-93 -55z" />
<glyph unicode="&#x201c;" horiz-adv-x="888" d="M113 958q0 64 31.5 124t88.5 110.5t108 85.5t118 72l49 -39q-84 -46 -147.5 -116.5t-63.5 -143.5q0 -32 14.5 -61t34.5 -48.5t40.5 -34t35 -22t14.5 -8.5q0 -46 -43 -78.5t-98 -32.5q-71 0 -126.5 55.5t-55.5 136.5zM555 958q0 64 31.5 124t88.5 110.5t108 85.5t118 72 l49 -39q-84 -46 -147.5 -116.5t-63.5 -143.5q0 -32 14.5 -61t35 -48.5t41 -34t35 -22t14.5 -8.5q0 -46 -43.5 -78.5t-98.5 -32.5q-71 0 -126.5 55.5t-55.5 136.5z" />
<glyph unicode="&#x201d;" horiz-adv-x="888" d="M104 805q84 46 147.5 116.5t63.5 143.5q0 32 -14.5 61t-34.5 48.5t-40.5 34t-35 22t-14.5 8.5q0 46 43 78.5t98 32.5q71 0 127 -56t56 -137q0 -52 -22.5 -102.5t-56 -89t-83.5 -78.5t-91 -66t-93 -55zM547 805q84 46 147.5 116.5t63.5 143.5q0 32 -14.5 61t-35 48.5 t-41 34t-35 22t-14.5 8.5q0 46 43 78.5t99 32.5q71 0 126.5 -56t55.5 -137q0 -52 -22.5 -102.5t-56 -89t-83.5 -78.5t-91 -66t-93 -55z" />
<glyph unicode="&#x201e;" horiz-adv-x="888" d="M-47 -305q84 46 147.5 116.5t63.5 143.5q0 32 -14.5 61t-35 48.5t-40.5 34t-34.5 22t-14.5 8.5q0 46 43 78.5t98 32.5q71 0 126.5 -56t55.5 -137q0 -52 -22.5 -102.5t-56 -89t-83.5 -78.5t-91 -66t-93 -55zM395 -305q84 46 147.5 116.5t63.5 143.5q0 32 -14.5 61 t-35 48.5t-40.5 34t-34.5 22t-14.5 8.5q0 46 43 78.5t98 32.5q71 0 127 -56t56 -137q0 -52 -23 -102.5t-56 -89t-83 -78.5t-91.5 -66t-93.5 -55z" />
<glyph unicode="&#x2022;" horiz-adv-x="931" d="M72 475q0 44 42.5 146t73.5 133t133.5 72.5t145.5 41.5q44 0 145.5 -41.5t132.5 -72.5t73 -133t42 -146q0 -45 -41.5 -146.5t-73.5 -133.5q-31 -31 -133.5 -73t-146.5 -42q-43 0 -145.5 42.5t-131.5 72.5q-31 33 -73.5 134.5t-42.5 145.5z" />
<glyph unicode="&#x2026;" horiz-adv-x="1425" d="M55 106q0 55 40.5 94.5t99.5 39.5t97 -39.5t38 -94.5q0 -56 -38.5 -96.5t-96.5 -40.5q-59 0 -99.5 41t-40.5 96zM530 106q0 55 40.5 94.5t99.5 39.5t97 -39.5t38 -94.5q0 -56 -38.5 -96.5t-96.5 -40.5q-59 0 -99.5 41t-40.5 96zM1006 106q0 55 40 94.5t99 39.5t97 -39.5 t38 -94.5q0 -56 -38.5 -96.5t-96.5 -40.5q-59 0 -99 41t-40 96z" />
<glyph unicode="&#x202f;" horiz-adv-x="353" />
<glyph unicode="&#x2039;" horiz-adv-x="614" d="M57 414v86l498 319l14 -41l-364 -327l280 -308l-24 -41z" />
<glyph unicode="&#x203a;" horiz-adv-x="614" d="M47 135l334 318l-250 317l25 41l403 -311l-12 -94l-486 -312z" />
<glyph unicode="&#x205f;" horiz-adv-x="442" />
<glyph unicode="&#x20ac;" horiz-adv-x="1032" d="M12 436l6 84h134v23q0 68 10 143h-117l6 84h127q60 234 224.5 378t367.5 144q150 0 230.5 -52.5t80.5 -129.5q0 -52 -25.5 -85.5t-74.5 -33.5q-54 0 -89 51t-38 119q-25 20 -68 31.5t-81 11.5q-136 0 -231 -110t-128 -324h412l6 -84h-426q-6 -65 -6 -137v-29h393l6 -84 h-393q22 -164 107 -257t223 -93q79 0 143.5 31.5t134.5 87.5l25 -51q-66 -82 -163 -133.5t-202 -51.5q-98 0 -178.5 37t-135 102t-88 147.5t-46.5 180.5h-146z" />
<glyph unicode="&#x2122;" horiz-adv-x="1878" d="M109 1001l14 279h678v-279h-62l-12 39q-20 62 -33 91.5t-36 53t-54.5 30t-85.5 6.5h-2v-607q0 -22 25 -28l90 -13l2 -55h-371l4 55l90 13q27 5 27 28v607h-2q-86 0 -126 -36.5t-77 -144.5l-14 -39h-55zM897 518l4 55l62 11q15 2 23 15t14.5 60t9.5 138l12 385 q0 25 -25 30l-71 13l-4 55h299l139 -569h20l185 569h303l-4 -55l-70 -13q-29 -5 -29 -30l9 -467q1 -72 11 -98t30 -29l61 -15l4 -55h-334l2 55l62 15q17 4 21.5 27.5t2.5 99.5l-8 475h-20l-220 -647h-102l-174 653h-20l-13 -399q-5 -136 -1.5 -170t24.5 -43l65 -11l2 -55 h-270z" />
<glyph unicode="&#x25fc;" horiz-adv-x="952" d="M0 0v952h952v-952h-952z" />
</font>
</defs>
</svg>
